<?xml version="1.0" encoding="UTF-8" standalone="no"?>
<svg
   width="129.01859"
   height="47.617191"
   viewBox="0 0 129.01859 47.617191"
   fill="none"
   version="1.1"
   id="svg520"
   xmlns="http://www.w3.org/2000/svg"
   xmlns:svg="http://www.w3.org/2000/svg">
  <defs
     id="defs524" />
  <g
     id="New_Layer_1653409134.6832836"
     style="display:inline"
     transform="translate(-742.57741,-446.90398)">
    <path
       d="m 820.754,494.27 -0.262,0.001 -0.083,-0.03 -0.021,-0.25 0.077,-0.14 0.605,-0.18 0.236,-0.166 0.336,-0.345 0.207,-0.09 0.054,-0.039 0.036,0.007 0.032,0.263 0.085,0.156 0.014,0.082 -0.302,0.133 -0.269,0.306 -0.588,0.2 z m -2.991,-0.905 -0.141,0.034 -0.3,-0.082 -0.062,-0.05 0.258,-0.137 0.198,-0.194 0.232,-0.017 0.137,0.04 -0.047,0.231 z m 4.302,-0.816 -0.253,0.099 -0.002,-0.208 0.195,-0.263 0.179,-0.089 0.099,0.105 0.009,0.048 -0.258,0.094 z m -9.552,-2.626 0.127,0.127 0.459,0.245 0.075,0.103 0.029,0.17 0.091,0.126 0.208,0.02 0.221,-0.026 0.169,0.081 0.146,0.127 0.216,0.247 0.189,0.273 0.237,0.153 0.135,0.228 -0.079,0.201 -0.299,0.278 -0.161,0.06 -0.221,0.022 -0.344,0.166 -0.126,-0.086 -0.39,-0.06 -0.312,-0.12 -0.261,-0.219 -0.149,-0.235 -0.19,-0.208 -0.331,-0.139 -0.595,-0.408 -0.366,-0.037 -0.15,0.03 -0.151,0.002 -0.779,-0.183 -0.12,-0.107 -0.096,-0.137 -0.086,-0.135 -0.053,-0.151 0.1,-0.134 0.104,-0.09 0.433,-0.158 0.31,-0.048 0.359,0.007 0.534,-0.049 0.508,0.079 0.156,-0.059 0.255,-0.164 0.09,0.057 z m 13.82,-0.907 0.102,0.031 0.357,-0.17 0.067,0.032 0.068,0.077 0.002,0.227 -0.137,0.189 -0.347,0.015 -0.049,0.053 -0.003,0.115 0.026,0.112 0.081,0.09 0.103,0.158 0.097,0.368 -0.196,0.151 -0.099,0.284 -0.34,0.267 -0.375,0.437 -0.299,0.223 -0.263,0.264 -0.227,0.177 -0.282,0.06 -0.424,0.038 -0.575,0.316 -0.318,0.138 -0.31,0.01 -0.289,-0.103 -0.11,-0.116 0.026,-0.156 0.096,-0.134 0.116,-0.11 0.075,-0.142 -0.328,-0.18 -0.029,-0.137 0.131,-0.365 0.085,-0.375 0.122,-0.256 0.47,-0.457 0.281,-0.227 0.166,-0.088 0.045,0.096 0.106,0.116 0.071,0.019 0.054,-0.026 0.414,0.04 0.104,-0.04 0.157,-0.181 0.104,-0.101 0.071,-0.214 0.018,-0.136 0.367,-0.099 0.198,-0.109 0.175,-0.155 0.51,-0.264 0.091,-0.073 -0.021,0.251 z m -26.177,-0.801 -0.078,0.097 -0.227,-0.173 -0.058,-0.078 0.168,-0.112 0.06,-0.016 0.146,0.122 z m 20.677,-0.633 -0.089,0.166 -0.161,-0.047 0.044,-0.16 0.081,-0.095 0.219,-0.138 0.221,-0.024 0.136,0.048 0.044,0.053 -0.346,0.054 z m -9.859,0.552 -0.109,0.027 -0.11,-0.041 0.044,-0.251 -0.062,-0.171 0.114,-0.134 0.029,-0.237 0.046,-0.072 0.066,0.075 0.031,0.049 0.058,0.023 0.127,0.004 0.028,0.103 -0.005,0.097 -0.054,0.102 -0.151,0.109 -0.107,0.123 z m 10.814,-1.089 -0.057,0.124 -0.765,-0.008 0.021,-0.163 0.213,-0.178 0.071,-0.059 0.234,-0.052 0.334,0.094 z m -18.737,0.73 -0.356,0.584 0.128,0.094 0.075,0.089 -0.588,0.121 -0.245,-0.064 -0.141,0.017 -0.597,-0.11 -0.427,-0.134 -0.049,-0.106 0.034,-0.127 0.125,0.043 0.33,0.02 0.126,-0.057 0.003,-0.376 -0.047,-0.491 0.445,-0.4 0.237,-0.162 0.273,-0.095 0.688,0.221 0.114,0.06 0.088,0.09 0.043,0.144 z m 21.457,-0.801 -0.17,0.174 -0.117,0.303 -0.105,0.092 -0.228,0.057 -0.136,-0.304 -0.252,0.014 0.124,-0.268 0.118,-0.1 0.154,-0.002 0.075,0.108 0.042,0.023 0.362,-0.453 0.073,-0.005 0.06,0.02 0.049,0.057 z m -1.016,-0.161 -0.396,0.077 -0.242,0.352 -0.191,-0.005 -0.106,0.156 -0.023,0.067 0.013,0.063 -0.021,0.06 -0.075,0.062 -0.18,-0.097 -0.154,0.124 -0.065,0.03 -0.227,-0.144 -0.216,0.009 -0.065,-0.022 0.268,-0.258 0.364,-0.241 0.06,-0.089 -0.143,-0.024 -0.085,-0.036 -0.011,-0.057 0.23,-0.038 0.158,-0.005 0.122,0.074 h 0.076 l 0.493,-0.284 0.195,0.064 0.142,0.073 z m 42.015,0.328 -0.14,0.037 -0.706,-0.085 -0.075,-0.116 -0.01,-0.06 0.161,-0.115 0.156,-0.195 0.242,-0.073 h 0.094 l 0.284,0.462 z m -59.887,-0.06 -0.063,0.002 -0.122,-0.055 0.044,-0.117 -0.066,-0.191 0.022,-0.157 0.156,-0.089 0.333,-0.01 0.013,0.115 z m 4.259,-0.363 -0.124,0.003 -0.024,-0.113 0.044,-0.118 0.118,-0.05 0.054,-0.003 0.084,0.107 0.02,0.056 -0.08,0.074 z m 15.439,-0.276 0.067,0.171 0.218,-0.095 0.212,-0.024 0.482,0.018 0.354,0.038 0.208,0.071 0.021,0.343 -0.099,0.074 -1.83,0.259 -0.18,-0.083 -0.069,-0.082 0.196,-0.254 -0.091,-0.121 0.104,-0.197 0.219,-0.134 z m 9.117,-0.118 0.491,0.113 0.28,-0.012 0.059,0.101 -0.27,0.239 -0.568,-0.184 -0.097,-0.197 z m -14.147,1.446 -0.396,0.1 -0.246,0.095 -0.235,0.126 -0.148,0.026 -0.269,0.01 -0.382,-0.023 -0.256,0.041 -0.718,0.326 -0.281,0.028 -0.245,0.08 -0.083,-0.127 -0.105,-0.094 -0.237,-0.023 -0.239,0.007 -0.242,0.288 -0.386,-0.061 -0.148,0.025 -0.146,0.061 -0.143,0.027 -0.149,-0.02 -0.563,-0.224 -0.646,-0.133 -0.648,0.052 -0.559,-0.123 -0.305,0.094 -0.289,0.134 -0.084,-0.141 -0.106,-0.124 -0.094,-0.186 -0.002,-0.211 0.031,-0.147 0.083,-0.135 0.052,-0.14 0.024,-0.15 0.122,0.071 0.127,-0.027 0.38,-0.163 0.371,-0.247 0.345,-0.09 0.199,-0.025 0.169,0.049 0.174,-0.018 0.177,-0.055 0.279,0.189 0.117,0.039 0.378,0.015 0.344,0.109 0.307,0.164 0.445,0.153 0.268,0.206 0.204,0.076 0.151,0.021 0.138,-0.028 0.177,-0.138 0.205,-0.057 0.178,0.002 0.325,-0.036 0.138,-0.033 0.153,-0.076 0.149,0.047 0.133,0.07 0.55,0.361 0.169,0.01 0.31,-0.078 0.093,-0.097 0.048,-0.149 0.085,-0.124 0.118,-0.107 0.134,-0.082 0.41,-0.139 0.281,-0.137 0.193,-0.232 -0.451,-0.102 0.096,-0.167 0.149,-0.094 0.2,0.035 0.173,0.13 0.077,0.499 -0.143,0.07 -0.089,0.076 -0.06,0.1 -0.257,0.183 0.102,0.229 -0.076,0.095 z m 22.675,-0.827 -0.244,0.088 0.163,-0.223 0.524,-0.506 0.188,0.094 0.25,0.018 -0.373,0.229 -0.38,0.095 z m -35.419,-0.002 0.141,0.111 0.129,-0.01 0.267,-0.17 0.161,-0.062 0.174,-0.002 0.167,0.028 0.164,0.121 0.06,0.197 0.063,0.061 0.096,-0.236 0.13,-0.071 0.145,-0.036 0.227,0.013 0.173,0.113 0.156,0.335 -0.004,0.293 0.056,0.11 0.109,0.08 0.08,0.113 -0.072,0.118 -0.07,0.057 -0.203,0.054 -0.099,-0.023 -0.09,-0.08 -0.101,-0.029 -0.231,0.027 -0.211,0.066 0.029,0.107 0.174,0.048 0.052,0.051 -0.011,0.069 -0.068,0.014 -0.226,-0.093 -0.153,0.019 -0.547,0.126 -0.146,-0.003 -0.081,-0.119 0.006,-0.31 -0.059,-0.082 -0.408,0.376 -0.122,0.092 -0.164,0.043 -0.172,-0.015 -0.587,0.228 -0.185,-0.032 h -0.179 l -0.628,0.247 -0.338,0.069 -0.172,0.005 -0.172,-0.021 -0.154,0.022 -0.138,0.1 -0.28,0.084 -0.289,-0.064 -0.245,-0.085 -0.232,-0.112 -0.057,-0.144 0.012,-0.172 0.097,-0.235 -0.065,-0.413 0.051,-0.188 0.095,-0.185 0.143,-0.068 0.189,-0.014 0.311,-0.166 0.284,-0.218 0.164,0.021 0.374,0.152 0.219,0.018 0.372,-0.024 0.152,0.093 0.062,0.214 0.083,0.078 0.108,0.055 0.265,0.362 0.245,-0.019 0.214,0.066 0.377,-0.219 0.287,0.006 0.081,-0.17 -0.172,-0.182 -0.206,-0.147 -0.11,-0.031 -0.122,0.009 -0.107,-0.023 -0.461,-0.33 -0.137,-0.178 -0.079,-0.209 0.047,-0.155 0.318,-0.137 0.148,-0.033 0.55,0.094 0.095,0.078 0.146,0.33 z m -7.842,-0.458 0.285,0.149 0.396,0.438 0.038,0.123 -0.12,0.116 -0.284,0.186 -0.635,0.287 -0.109,0.135 -0.135,0.265 -0.031,0.113 -0.045,0.062 -0.072,0.045 -0.138,0.039 -0.15,-0.056 0.136,-0.17 0.005,-0.203 -0.101,-0.19 -0.143,-0.159 -0.289,-0.216 -0.308,-0.191 -0.312,-0.098 -0.331,-0.044 -0.119,-0.093 -0.194,-0.238 -0.064,-0.13 -0.031,-0.136 0.02,-0.132 0.083,-0.008 0.324,0.031 0.598,0.155 0.295,0.013 0.169,-0.036 0.438,-0.306 0.104,0.005 0.419,0.135 z m 40.389,-0.565 -0.167,0.259 -0.187,-0.017 -0.341,-0.347 0.021,-0.242 0.028,-0.079 0.131,-0.024 0.441,0.07 0.086,0.196 z m -8.527,-0.807 0.038,0.137 -0.006,0.06 -0.336,0.044 -0.323,0.152 -0.166,0.175 -0.13,0.227 -0.446,-0.092 -0.398,-0.015 -0.177,-0.08 -0.19,0.005 -0.248,0.07 -0.354,0.192 -0.078,0.015 0.029,-0.292 0.098,-0.18 0.37,-0.431 0.31,0.095 0.359,0.027 0.409,-0.084 0.291,-0.194 0.41,-0.102 0.328,0.254 z m 1.737,-0.126 -0.181,0.066 0.056,-0.208 -0.012,-0.168 0.292,0.051 -0.003,0.134 -0.027,0.052 z m 31.196,1.831 -0.671,0.371 -0.881,-0.065 -0.312,-0.006 -0.516,0.09 -0.104,-0.072 0.098,-0.349 0.412,-0.929 0.492,-0.818 0.209,-0.212 0.291,-0.199 0.308,-0.16 0.698,-0.166 0.634,0.03 0.09,0.068 0.273,0.272 0.177,0.215 0.075,0.304 -0.27,0.523 -0.302,0.499 -0.487,0.392 z m -20.234,-0.772 -0.047,0.032 -0.349,-0.036 -0.198,-0.001 0.026,-0.213 -0.104,-0.16 0.141,-0.235 0.004,-0.272 0.146,-0.037 0.021,-0.155 0.175,-0.411 0.104,-0.091 0.146,-0.036 0.175,-0.24 0.099,-0.07 0.103,-0.182 0.147,-0.084 -0.012,-0.156 0.082,-0.082 0.233,-0.064 0.16,0.077 0.099,0.159 -0.258,0.196 0.133,0.483 -0.188,0.527 -0.123,0.158 -0.231,0.136 -0.068,0.129 -0.271,0.26 -0.082,0.222 -0.012,0.094 z m 1.841,-2.243 -0.034,0.139 -0.12,-0.074 -0.119,-0.162 -0.172,-0.023 -0.128,-0.043 -0.075,-0.076 0.481,-0.035 z m -49.307,-0.193 -0.042,0.112 -0.143,-0.028 -0.135,-0.185 0.065,-0.048 0.075,-0.02 0.098,0.021 z m 40.013,0.141 -0.125,0.071 -0.211,-0.147 -0.057,-0.061 0.132,-0.144 0.143,-0.041 0.086,0.063 0.042,0.063 -0.018,0.069 z m -22.159,-0.181 -0.286,0.016 -0.089,-0.025 -0.021,-0.274 0.313,0.118 0.103,0.008 z m -19.448,-0.038 -0.055,0.041 -0.476,-0.023 -0.307,0.229 -0.214,0.07 h -0.763 l -0.091,-0.031 h -0.068 l -0.041,0.046 -0.243,-0.035 -0.776,-0.203 -0.107,-0.188 0.12,-0.201 0.279,-0.285 0.56,-0.056 2.547,-0.02 0.276,0.245 0.026,0.083 -0.555,0.167 z m 4.301,-0.379 -0.229,0.048 -0.213,-0.099 0.006,-0.133 0.052,-0.124 0.318,-0.064 0.169,0.004 0.182,0.085 0.128,0.089 0.062,0.104 -0.344,0.005 z m 54.157,-0.62 -0.047,0.043 -0.073,-0.091 -0.007,-0.057 0.096,-0.155 0.097,-0.09 0.106,-0.007 -0.026,0.127 z m -82.571,-0.307 -0.176,0.062 -0.133,-0.055 -0.06,-0.079 0.198,-0.194 0.094,-0.046 0.099,-0.015 0.047,0.105 z m 82.688,-0.255 -0.156,0.026 -0.075,-0.229 0.127,-0.059 0.14,0.14 z m 0.29,-0.324 -0.068,0.023 v -0.138 l 0.078,-0.122 0.081,-0.07 0.096,-0.003 z m -0.793,0.023 -0.046,0.198 -0.047,0.221 -0.256,0.248 -0.159,0.379 -0.093,0.095 -0.346,0.169 -0.307,-0.211 -0.089,-0.181 0.136,-0.836 0.132,0.028 0.086,-0.006 0.028,-0.055 -0.197,-0.094 -0.037,-0.48 0.01,-0.181 0.149,-0.041 0.185,0.141 0.235,0.251 0.273,0.198 z m -76.232,-1.219 0.283,0.32 0.247,0.171 0.292,0.093 0.307,0.009 0.302,0.041 0.352,0.122 0.361,0.056 0.167,-0.021 0.161,-0.063 0.113,-0.004 0.099,0.059 0.25,0.271 0.27,0.248 0.063,0.126 0.185,0.598 0.208,0.172 0.286,0.05 h 0.336 l 0.334,0.025 0.773,0.14 0.308,-0.02 0.272,-0.14 0.242,0.091 0.657,0.168 0.323,0.038 0.367,-0.048 0.368,-0.01 0.176,0.049 0.169,0.073 0.144,0.026 0.151,-10e-4 0.266,-0.14 0.176,-0.257 0.142,-0.324 0.112,-0.338 0.075,-0.145 0.102,-0.128 0.133,-0.083 0.142,-0.052 0.386,0.032 0.08,0.082 0.432,0.573 0.076,0.05 0.45,0.036 0.125,-0.019 0.274,-0.115 0.157,-0.01 0.289,0.142 0.125,0.121 0.14,0.089 0.708,0.091 0.272,0.246 0.14,0.033 0.492,-0.03 0.341,0.024 0.295,0.066 0.135,0.349 0.11,0.358 0.062,0.122 0.291,0.123 0.118,0.111 -0.031,0.357 0.031,0.34 0.615,0.296 0.659,0.17 0.7,0.016 0.701,-0.059 0.361,-0.073 0.451,-0.126 0.094,0.002 0.875,0.389 0.075,0.06 0.099,0.291 -0.003,0.307 -0.163,0.729 -0.011,0.2 0.016,0.2 0.174,0.435 0.093,0.125 0.316,0.229 0.013,0.12 -0.044,0.12 -0.349,-0.082 -0.213,-0.099 -0.123,-0.164 -0.177,-0.093 -0.328,0.034 -0.615,-0.164 -0.695,-0.254 -1.232,-0.539 -0.336,0.004 -0.323,0.069 -0.339,0.137 -0.354,0.098 -0.26,0.037 -0.261,-0.027 -0.658,-0.129 -0.664,-0.084 -1.698,-0.053 -0.48,-0.123 -0.796,-0.062 -0.631,-0.106 -0.627,-0.148 -1.596,-0.729 -0.521,-0.183 -1.604,-0.348 -0.246,-0.028 -0.582,0.026 -0.365,-0.102 -0.323,-0.002 -0.479,0.113 -0.146,0.081 -0.187,0.171 -0.326,-0.008 -0.323,-0.033 -0.851,-0.164 -0.316,-0.101 -0.305,-0.149 -0.275,-0.194 -0.143,-0.069 -0.735,-0.198 -0.601,-0.068 -1.233,-0.09 -0.27,-0.06 -0.225,-0.072 -0.124,-0.16 0.016,-0.204 0.088,-0.176 0.122,-0.177 0.079,-0.169 -0.902,-0.354 -0.713,-0.193 -0.307,-0.037 h -0.31 l -0.347,0.04 -0.344,-0.019 -0.163,-0.058 -0.164,-0.02 -0.167,0.042 -0.133,-0.016 -0.034,-0.161 0.086,-0.137 0.174,-0.155 0.1,-0.027 0.044,0.243 0.051,0.048 0.154,0.053 0.066,-0.015 0.273,-0.31 0.076,-0.153 0.132,-0.413 0.144,0.08 0.143,-0.049 0.084,-0.066 0.229,-0.955 0.19,-0.279 0.26,-0.231 0.13,-0.057 0.255,0.142 0.516,0.054 0.308,0.094 0.307,0.012 0.302,0.046 0.419,0.168 0.148,-0.018 0.149,-0.052 0.226,-0.183 0.097,-0.292 0.325,0.148 0.477,0.059 z m 46.805,-0.095 -0.025,0.134 -0.104,-0.154 -0.094,-0.076 0.01,-0.166 0.133,0.062 z m -9.887,0.911 -0.115,0.467 -0.054,-0.165 -0.021,-0.427 -0.071,-0.208 0.045,-0.239 -0.016,-0.613 0.088,-0.283 0.16,0.36 0.041,0.183 z m -21.917,-1.367 -0.06,0.1 -0.269,-0.008 -0.046,-0.112 0.177,-0.204 0.115,-0.013 0.104,0.075 z m 56.377,0.111 -0.171,0.27 -0.117,-0.095 -0.065,-0.001 -0.039,-0.159 0.039,-0.328 -0.144,-0.369 0.19,0.005 0.053,0.11 0.06,0.037 0.187,0.356 z m 5.444,-0.403 -0.022,0.108 -0.002,0.199 0.047,0.185 -0.12,0.188 0.112,0.281 0.016,0.14 -0.006,0.198 -0.031,0.089 -0.086,0.26 -0.084,0.093 -0.064,0.026 -0.065,0.079 -0.552,-0.085 -0.238,-0.181 -0.213,-0.195 -0.045,-0.082 -0.25,-0.228 -0.059,-0.077 -0.005,-0.122 0.203,-0.031 0.216,0.004 -0.01,-0.109 0.125,-0.386 -0.328,-0.248 -0.058,-0.104 0.117,-0.07 0.264,0.086 0.322,-0.435 0.096,-0.091 0.045,-0.242 0.182,-0.031 0.128,0.031 0.083,0.151 0.033,0.131 -0.035,0.118 0.155,0.061 z m -5.11,0.547 -0.229,0.241 0.216,-0.568 0.044,-0.288 0.201,-0.171 0.297,-0.87 0.065,0.02 0.098,0.085 -0.15,0.638 -0.417,0.448 z m -85.763,-1.186 -0.229,0.014 -0.422,-0.344 -0.07,-0.106 0.12,-0.102 0.127,0.007 0.486,0.217 0.095,0.107 z m 59.664,-0.58 -0.011,0.284 -0.112,-0.016 -0.093,-0.1 -0.024,-0.094 0.005,-0.076 0.05,-0.06 z m -4.445,0.466 -0.178,0.075 -0.338,-0.32 -0.143,-0.264 0.034,-0.149 0.102,-0.13 0.048,-0.033 -0.021,-0.136 0.133,-0.066 0.146,0.009 0.096,0.183 0.115,0.05 0.058,0.175 z m 1.69,-0.472 -0.073,0.186 -0.154,0.145 -0.125,0.011 -0.13,-0.03 -0.229,-0.126 -0.058,0.133 -0.181,-0.006 -0.066,-0.172 0.128,-0.509 0.189,-0.19 -0.018,-0.2 -0.156,-0.425 0.097,-0.222 0.437,-0.168 0.381,-0.205 0.117,-0.042 0.106,0.158 0.057,0.724 -0.409,0.573 z m 1.5,-2.01 0.065,0.602 -0.021,0.158 -0.157,-0.231 -0.057,-0.046 -0.044,0.046 -0.057,0.025 -0.079,-0.002 -0.104,0.233 -0.01,0.22 -0.08,0.147 -0.04,0.491 0.026,0.132 0.122,-0.065 0.074,-0.017 0.276,0.189 0.146,0.138 -0.04,0.167 -0.187,0.168 -0.217,0.073 -0.163,-0.072 -0.047,0.034 -0.096,0.086 -0.073,0.114 0.021,0.117 -0.185,0.333 -0.107,0.094 -0.221,-0.102 -0.138,0.087 -0.11,-0.008 -0.169,-0.333 0.005,-0.156 0.157,-0.175 0.001,-0.126 0.077,-0.141 0.172,-0.193 0.099,-0.146 0.002,-0.092 0.073,-0.35 0.029,-0.146 0.049,-0.155 0.078,-0.317 0.011,-0.596 0.263,-0.491 0.258,-0.134 0.101,-0.022 -0.015,0.131 z m 29.163,-0.853 0.144,0.149 -0.334,-0.117 -0.478,-0.245 -0.034,-0.164 0.403,0.248 z m -28.987,-0.372 -0.275,0.336 -0.19,-0.017 -0.229,-0.221 -0.066,-0.242 -0.007,-0.088 0.156,-0.137 0.526,0.046 0.099,0.122 z m 14.931,-1.474 -0.478,0.146 0.103,-0.272 0.065,-0.072 0.237,0.074 z m -0.805,0.249 -0.073,0.102 -0.162,0.067 -0.137,-0.007 0.044,-0.098 -0.034,-0.057 -0.1,0.025 -0.165,0.079 -0.209,0.158 -0.122,-0.078 -0.026,-0.122 0.008,-0.056 0.249,-0.219 0.289,-0.038 0.407,-0.21 0.182,0.01 -0.044,0.133 -0.063,0.095 -0.037,0.1 z m 1.253,-0.357 -0.005,0.118 -0.02,0.037 -0.153,-0.041 -0.109,0.002 -0.097,-0.213 0.027,-0.049 0.2,0.062 0.076,0.021 z m -34.514,-0.23 -0.103,0.481 -0.171,-0.273 0.191,-0.323 0.089,-0.065 z m 31.383,-0.417 0.063,0.124 -0.274,-0.078 -0.122,-0.12 0.12,-0.075 0.067,-0.02 z m -31.721,1.545 -0.589,0.52 -0.098,-0.132 0.051,-0.529 -0.164,-0.329 0.011,-0.244 0.116,-0.432 0.15,-0.331 0.343,-0.221 0.084,-0.026 -0.021,0.401 0.069,0.151 0.024,0.129 -0.036,0.111 0.063,0.514 0.039,0.125 -0.084,0.162 z m 29.628,-2.179 0.463,0.218 0.104,0.142 0.083,0.169 0.091,0.093 0.108,0.076 0.179,0.147 0.047,0.224 -0.04,0.452 -0.21,0.04 -0.195,0.066 -0.404,0.262 -0.2,0.051 -0.212,0.018 -0.151,0.069 -0.151,0.027 -0.393,-0.145 -0.38,-0.17 -0.552,-0.295 -0.102,-0.072 -0.089,-0.158 -0.254,-0.284 -0.063,-0.182 -0.02,-0.518 0.065,-0.119 0.106,-0.063 0.37,0.12 0.242,-0.125 0.698,-0.106 0.711,0.011 z m 3.164,-0.423 -0.141,0.233 -0.247,-0.01 -0.043,-0.033 0.292,-0.146 z m -59.222,0.192 -0.046,0.056 -0.155,-0.03 -0.114,-0.078 -0.07,-0.074 -0.018,-0.077 0.151,-0.095 0.32,0.098 z m 1.648,-0.295 -0.114,0.072 -0.065,-0.069 -0.021,-0.077 0.049,-0.097 0.154,-0.009 0.071,0.029 z m 62.532,-0.094 0.645,0.309 0.334,0.045 0.562,-0.04 0.212,0.03 0.536,0.395 0.156,0.271 0.045,0.234 0.083,0.222 0.132,0.056 0.155,0.021 0.202,0.32 0.04,0.104 -0.154,0.803 -0.63,-0.304 -0.61,-0.345 -0.263,-0.128 -0.701,-0.292 -0.107,-0.1 -0.08,-0.132 -0.305,-0.18 -0.611,-0.028 -0.228,0.005 -0.093,0.027 0.024,0.097 0.003,0.197 -0.152,0.054 -0.378,-0.124 -0.338,-0.045 -0.294,-0.122 -0.393,-0.064 -0.044,-0.061 0.033,-0.091 -0.018,-0.085 -0.091,-0.033 -0.177,0.016 -0.17,0.086 -0.143,0.097 -0.208,0.268 -0.105,0.103 -0.344,0.044 -0.143,-0.026 -0.132,-0.066 -0.39,-0.49 -0.133,-0.106 -0.146,-0.086 -0.136,-0.04 -0.141,0.075 -0.073,0.152 -0.033,0.181 -0.039,0.104 -0.169,0.29 -0.141,0.172 -0.049,-0.027 0.07,-0.276 v -0.156 l -0.086,-0.165 -0.055,-0.168 0.662,-0.803 0.239,-0.191 1.042,-0.066 0.619,0.041 0.337,-0.02 0.226,-0.059 0.188,0.028 0.047,0.158 0.117,0.117 0.163,-0.01 0.295,-0.124 0.258,-0.191 0.156,-0.083 0.161,-0.014 0.165,0.013 0.161,0.044 z m -82.313,0.885 0.112,0.407 -0.335,-0.277 0.008,-0.196 -0.046,-0.128 -0.202,-0.157 -0.156,-0.197 -0.07,-0.465 0.054,-0.097 0.132,-0.006 0.587,0.61 0.039,0.103 -0.013,0.218 -0.084,0.068 z m 21.841,-0.517 -0.044,0.294 -0.068,0.111 -0.234,0.146 -0.08,0.089 -0.219,-0.014 -0.029,-0.154 -0.073,-0.104 -0.231,-0.12 -0.061,0.029 -0.042,0.179 -0.455,0.125 -0.127,0.011 0.062,-0.236 -0.117,-0.186 -0.009,-0.228 -0.022,-0.1 -0.057,-0.058 0.116,-0.159 -0.02,-0.177 0.122,-0.19 0.068,-0.461 0.482,-0.101 0.104,0.083 0.56,0.104 0.397,0.279 0.211,0.371 z m -22.461,-0.717 -0.2,0.225 -0.33,-0.005 -0.065,-0.139 0.015,-0.336 -0.081,-0.11 0.003,-0.044 0.052,-0.191 0.068,-0.042 0.533,0.473 z m 95.897,-1.722 -0.081,0.042 -0.029,-0.121 0.045,-0.163 0.053,-0.026 0.061,0.008 0.078,0.059 z m -96.91,0.612 0.014,0.074 -0.457,-0.245 -0.22,-0.068 -0.196,-0.268 0.062,-0.128 0.008,-0.18 0.029,-0.071 0.14,-0.026 0.181,0.131 0.137,0.319 0.227,0.297 z m 73.563,0.302 -0.047,0.051 -0.169,-0.151 -0.113,-0.426 -0.098,-0.113 -0.112,-0.405 0.029,-0.115 0.14,-0.17 0.112,0.002 0.083,0.101 -0.046,0.436 0.25,0.552 z m -6.193,-1.383 0.05,0.112 -0.177,-0.003 -0.073,-0.211 0.018,-0.113 z m 6.107,-0.463 0.862,0.093 -0.122,0.101 -0.93,0.161 -0.33,-0.029 -1.011,0.095 -0.13,-0.006 -0.019,-0.156 -0.109,-0.109 0.162,-0.095 0.213,-0.022 0.56,0.036 z m -8.06,0.075 -0.206,0.23 -0.023,-0.123 0.042,-0.112 0.059,-0.079 0.087,-0.039 z m 20.209,-0.351 0.034,0.166 0.166,0.153 -0.057,0.238 -0.066,0.036 0.035,0.108 0.072,0.083 -0.13,0.057 -0.096,-0.028 -0.152,0.077 -0.103,0.107 -0.32,0.045 -0.113,-0.099 -0.58,-0.117 -0.371,-0.256 -0.047,-0.077 0.719,-0.301 0.314,-0.08 0.264,0.005 0.332,-0.112 z m -15.11,0.041 0.264,0.099 h 0.092 l 0.087,-0.116 0.054,-0.019 0.118,0.057 0.026,0.188 0.171,-0.026 0.131,0.064 0.042,0.045 -0.017,0.187 -0.504,0.033 -0.358,0.151 -0.483,-0.136 -0.548,0.233 -0.333,0.081 -0.289,-0.005 -0.247,-0.408 0.143,-0.478 0.105,-0.079 0.184,-0.042 0.508,-0.023 z m 29.482,-0.317 1.107,0.14 0.301,-0.018 0.633,0.054 0.527,0.186 0.924,0.034 0.274,0.056 0.213,0.128 -0.516,0.105 -0.244,0.099 -0.451,0.049 -0.378,-0.05 -0.275,0.059 -0.1,-0.096 -0.403,-0.098 -0.514,-0.201 -1.062,-0.233 -0.05,-0.146 z m -74.432,0.078 -0.321,0.117 -0.097,-0.262 0.206,-0.078 0.224,0.068 z m -8.159,0.139 0.096,0.192 0.133,0.173 0.097,0.187 0.132,0.897 0.441,0.771 1.27,0.303 -0.208,0.125 -0.105,0.112 -0.078,0.128 -0.187,0.535 0.018,0.114 0.11,0.181 0.026,0.197 -0.159,-0.001 -0.18,-0.044 -0.143,-0.074 -0.133,-0.097 -0.143,-0.077 -0.156,-0.05 -0.258,-0.153 -0.349,-0.108 -0.357,-0.085 -0.172,-0.227 -0.083,-0.28 0.089,-0.418 -0.089,-0.116 -0.128,-0.102 -0.156,-0.301 -0.058,-0.352 -0.226,-0.136 -0.299,-0.083 -0.13,-0.067 -0.589,0.129 -0.143,-0.03 -0.125,-0.098 -0.32,-0.103 0.013,-0.195 0.148,-0.156 0.352,-0.157 0.165,-0.132 0.032,-0.174 -0.062,-0.127 0.023,-0.133 0.112,-0.129 0.131,-0.101 0.354,-0.134 0.153,0.233 0.076,0.195 0.094,0.141 0.151,-0.202 -0.097,-0.348 0.27,-0.078 0.264,-0.003 0.198,0.096 0.13,0.15 z m 49.258,0.097 -0.193,0.018 -0.128,-0.082 0.011,-0.409 0.117,-0.089 0.058,0.015 0.035,0.122 0.058,0.109 0.097,0.102 z m 12.786,-0.122 -0.172,0.113 -0.086,0.031 -0.414,-0.076 -0.484,0.016 -0.505,0.105 -0.29,-0.089 -0.185,-0.145 0.009,-0.153 0.173,-0.379 0.379,-0.287 0.154,-0.052 0.27,0.078 0.456,0.22 0.357,0.258 0.325,0.201 z m -13.867,-1.364 0.063,0.174 -0.102,0.151 0.111,0.283 0.282,-0.377 0.271,-0.048 0.153,0.063 0.105,0.075 0.057,0.143 -0.099,0.307 -0.177,0.144 -0.229,0.023 -0.109,-0.179 -0.149,-0.017 -0.105,0.39 -0.047,0.06 -0.134,0.049 -0.12,-0.107 -0.021,-0.06 0.169,-0.177 -0.091,-0.525 -0.127,0.099 -0.339,0.477 -0.264,0.213 -0.09,-0.108 -0.134,-0.324 0.061,-0.416 0.213,-0.281 0.18,0.019 0.521,-0.088 z m -37.893,0.026 -0.56,0.285 -0.131,-0.015 -0.101,-0.101 0.063,-0.55 0.072,-0.164 0.389,-0.018 0.237,0.079 0.125,0.089 0.048,0.184 -0.027,0.111 z m 70.88,-0.18 -0.135,0.051 -0.156,-0.056 -0.149,-0.214 0.054,-0.164 0.173,-0.113 0.145,0.113 0.045,0.144 0.109,0.01 z m -100.477,1.846 -0.26,0.015 -0.553,-0.334 -0.132,-0.15 -0.031,-0.2 -0.531,-0.772 -0.071,-0.177 0.209,-0.634 0.541,-0.153 0.179,0.107 0.063,0.285 0.31,0.514 0.102,0.277 0.077,0.123 0.032,0.096 -0.028,0.066 0.224,0.326 0.161,0.191 0.012,0.309 z m 89.352,-1.29 -0.099,0.078 -0.341,-0.073 -0.177,-0.172 -0.12,-0.231 -0.078,-0.19 -0.021,-0.151 -0.101,-0.185 0.014,-0.067 0.629,-0.195 0.119,0.071 0.263,0.006 0.114,0.141 -0.078,0.613 z m -0.271,-1.5 -0.071,0.142 -0.133,0.096 -1.207,0.17 0.104,-0.102 0.051,-0.101 0.076,-0.052 0.118,0.014 0.06,-0.031 0.062,-0.012 0.067,0.013 0.117,-0.042 0.246,0.03 0.254,-0.024 -0.02,-0.136 z m 12.567,-0.352 0.597,0.109 0.218,-0.006 0.212,0.123 0.26,-0.058 0.146,0.04 0.49,0.423 0.242,0.28 0.359,0.241 0.26,0.082 -0.195,0.22 -0.396,0.116 -0.153,0.006 -0.302,-0.131 -0.245,0.024 -0.214,-0.164 -0.037,-0.254 -0.221,-0.572 -0.284,0.164 -0.343,-0.264 -0.092,-0.006 -0.021,0.044 -0.145,-0.089 -0.125,-0.178 z m -22.684,0.362 -0.031,0.057 -0.293,-0.073 -0.08,-0.04 0.148,-0.395 0.138,0.012 0.121,0.376 z m 9.336,-0.703 -0.161,0.003 -0.292,-0.121 0.169,-0.105 0.107,-0.022 0.094,-0.063 0.052,-0.003 0.116,0.054 0.076,0.091 z m -24.592,-0.34 0.118,0.124 -0.07,0.143 -0.097,-0.036 -0.255,0.002 -0.096,0.011 -0.115,0.084 -0.073,0.003 0.05,-0.132 0.216,-0.2 0.135,0.03 z m 32.579,0.89 0.703,0.042 0.356,-0.028 0.349,0.036 0.142,0.071 0.242,0.215 -0.068,0.141 -0.042,0.292 0.123,0.28 0.203,0.281 0.166,0.3 0.034,0.146 -0.063,0.31 -0.057,0.153 -0.201,0.256 -0.111,0.279 0.072,0.344 0.039,0.347 -0.007,0.318 0.036,0.313 0.109,0.318 0.47,0.87 0.273,0.59 0.089,-0.33 -0.022,-0.366 0.097,-0.132 0.138,-0.07 0.171,0.073 0.048,0.148 0.013,0.324 0.148,0.636 0.19,0.029 0.206,-0.097 0.034,0.194 -0.008,0.36 0.096,0.286 0.084,0.112 0.339,0.232 0.153,0.043 0.447,0.056 0.337,0.018 0.323,-0.083 0.208,-0.213 0.188,-0.231 0.648,-0.532 0.188,-0.255 0.182,-0.39 0.063,-0.083 0.645,-0.422 0.075,-0.15 0.092,-0.29 0.141,-0.28 0.104,-0.145 0.625,-0.137 0.646,-0.074 0.643,-0.258 0.278,-0.222 0.014,-0.146 -0.141,-0.256 -0.006,-0.113 0.148,-0.108 0.573,-0.325 0.662,-0.334 0.532,-0.23 0.294,0.002 0.271,0.203 0.289,0.166 1.513,0.488 0.242,0.152 0.211,0.202 0.302,0.14 0.339,0.067 0.307,0.131 0.291,0.168 0.644,0.314 0.864,0.381 0.221,0.022 0.803,-0.018 0.14,0.072 0.131,0.102 0.122,0.023 0.922,0.071 0.141,0.073 0.134,0.101 0.074,0.276 0.636,0.007 v 0.541 0.567 l 10e-4,0.567 v 0.568 0.568 l 10e-4,0.568 v 0.568 0.568 0.568 0.568 0.569 0.569 0.569 0.569 0.569 l 0.002,0.57 v 0.57 0.57 0.243 l -0.088,0.298 -0.193,0.446 -0.034,0.361 0.16,0.281 0.156,0.183 v 0.47 0.571 0.572 0.572 0.572 0.572 0.573 l 0.002,0.573 v 0.573 0.573 0.574 0.037 l -0.145,-0.095 -0.387,-0.314 -0.351,-0.358 -0.227,-0.334 -0.257,-0.304 -1.089,-0.901 -0.276,-0.296 -0.057,-0.082 0.026,-0.077 0.127,-0.156 0.222,-0.451 -0.232,0.279 -0.278,0.221 -0.404,0.014 -0.396,0.054 -0.367,0.133 -0.372,0.046 -0.188,-0.065 -0.112,-0.166 -0.058,-0.17 -0.026,-0.181 -0.158,0.292 -0.307,0.16 -0.422,0.337 -0.12,-0.07 -0.071,-0.128 -0.025,-0.133 0.082,-0.142 0.058,-0.15 0.084,-0.361 0.189,-0.213 0.12,-0.411 0.078,-0.146 0.04,-0.146 -0.109,-0.166 -0.185,-0.056 -0.128,-0.101 -0.146,-0.279 -0.091,-0.094 -0.167,-0.115 -0.128,-0.133 0.141,-0.101 0.188,-0.041 0.153,0.006 0.276,0.063 0.125,0.003 0.321,-0.103 -0.181,0.032 -0.179,-0.004 -0.57,-0.18 -0.354,-0.187 -0.332,-0.375 -0.004,-0.072 0.234,-0.068 0.508,-0.079 -0.157,-0.191 -0.229,-0.167 -0.08,-0.296 -0.156,-0.183 -0.339,-0.299 -0.232,-0.31 -0.197,-0.63 -0.202,-0.476 0.05,-0.172 0.17,-0.123 -0.258,-0.014 -0.233,-0.088 0.124,-0.231 0.27,-0.137 -0.247,0.035 -0.239,0.067 -0.11,0.013 -0.112,-0.021 -0.06,-0.093 -0.008,-0.132 0.034,-0.233 -0.04,-0.226 -0.213,-0.105 -0.177,-0.161 -0.101,-0.06 -0.13,0.004 -0.126,-0.108 -0.103,-0.156 -1.269,-0.677 -0.075,-0.193 -0.118,0.084 -0.117,0.042 -0.146,-0.111 -0.153,-0.074 -0.167,0.012 -0.154,-0.06 -0.163,-0.034 -0.168,-0.005 -0.668,-0.208 -0.631,-0.329 -0.515,-0.142 -0.318,-0.185 -0.329,-0.15 -0.738,-0.146 -0.748,-0.099 -0.271,-0.003 -0.227,0.032 -0.218,-0.007 -1.238,-0.714 -0.21,-0.325 0.021,-0.19 0.056,-0.157 0.504,-0.045 -0.354,-0.046 -0.146,0.021 -0.293,0.129 -0.158,0.009 -0.224,-0.086 -0.214,-0.108 -0.351,0.1 -0.179,-0.164 -0.063,-0.173 -0.094,-0.079 -0.131,0.008 -0.179,0.063 -0.177,-0.011 -0.114,-0.119 -0.081,-0.155 -0.121,-0.111 -0.147,-0.085 -0.24,-0.201 -0.125,-0.275 0.016,-0.475 0.038,-0.17 0.237,-0.277 0.168,-0.263 -0.209,-0.029 -0.187,0.121 -0.079,0.124 -0.033,0.15 -0.021,0.499 -0.151,0.145 -0.227,-0.012 0.067,0.292 -0.093,0.277 -0.265,0.326 -0.021,0.148 0.041,0.161 -0.059,0.158 -0.428,0.456 -0.143,0.022 -0.316,-0.003 -0.327,0.072 -0.152,-0.106 -0.124,-0.138 -0.094,-0.164 -0.13,-0.337 -0.104,-0.348 0.325,-0.426 -0.112,-0.385 -0.219,-0.331 -0.557,-0.458 -0.575,-0.435 -0.263,-0.088 -0.428,-0.039 -0.136,-0.042 -0.134,-0.163 -0.099,-0.188 0.27,-0.081 0.459,-0.221 0.26,0.011 0.709,0.12 0.216,0.109 0.203,0.064 0.482,-0.365 0.384,-0.477 0.238,-0.104 0.203,-0.035 0.208,0.046 0.411,0.166 0.323,0.078 0.23,0.015 0.12,0.149 0.135,0.067 0.032,-0.225 0.117,-0.26 0.229,-0.081 0.122,-0.019 0.076,-0.067 -0.018,-0.241 -0.302,-0.03 0.164,-0.207 0.148,-0.101 0.051,-0.101 0.003,-0.126 -0.593,0.243 -0.625,0.102 -0.37,-0.028 -0.367,-0.003 -0.737,0.162 -0.278,-0.006 -0.652,-0.066 -0.359,-0.079 -0.279,0.061 -0.268,0.005 -0.281,-0.186 -0.24,-0.232 -0.118,-0.165 -0.158,-0.12 -0.07,-0.161 -0.175,-0.606 -0.016,-0.434 -0.283,-0.008 -0.276,-0.043 -1.229,-0.412 -0.147,0.101 -0.173,0.052 -0.173,0.019 -0.171,-0.021 -0.172,-0.064 0.016,-0.114 0.126,-0.278 0.125,-0.103 0.172,-0.08 0.108,-0.148 0.179,-0.443 0.014,-0.151 -0.02,-0.154 0.014,-0.117 0.111,-0.061 0.462,-0.144 0.963,-0.218 0.243,-0.13 0.2,-0.208 0.235,-0.126 0.107,-0.128 0.124,-0.103 0.743,-0.275 0.322,-0.022 0.328,0.032 0.649,0.163 0.619,0.263 0.537,0.346 z m -81.384,-1.091 0.263,0.271 0.063,0.097 -0.13,0.15 -0.104,0.212 -0.06,0.045 -0.201,-0.081 -0.142,0.208 -0.094,-0.333 -0.204,-0.211 0.126,-0.216 0.047,-0.016 0.062,0.007 0.063,0.057 z m 64.81,-0.044 0.324,0.417 -0.219,0.395 0.151,0.221 0.409,0.014 0.094,0.083 0.072,0.1 0.047,0.136 -0.106,0.109 -0.229,0.1 -0.263,-0.144 -0.068,-0.134 -0.055,-0.05 -0.354,0.102 -0.099,0.01 -0.067,-0.187 0.085,-0.268 -0.247,-0.121 -0.227,-0.277 -0.008,-0.111 0.091,-0.193 -0.012,-0.154 0.129,-0.012 0.235,0.208 0.102,-0.196 0.102,-0.082 z m -0.89,0.491 -0.177,0.072 -0.19,-10e-4 -0.042,-0.297 0.063,-0.377 0.177,-0.064 0.282,0.08 -0.105,0.095 0.078,0.202 z m -65.99,-0.41 -0.366,0.097 -0.407,-0.07 0.05,-0.167 0.197,-0.195 0.173,0.008 0.317,0.128 0.112,0.115 z m 75.99,-0.959 0.485,0.119 0.111,-0.019 0.704,0.306 0.112,0.152 -0.039,0.103 0.104,0.138 -0.23,0.21 -0.111,0.023 -0.112,-0.079 -0.225,-0.044 -0.26,0.086 -0.166,-0.065 -0.139,-0.192 -0.249,-0.117 -0.35,-0.406 -0.172,0.015 0.045,0.159 0.149,0.105 0.195,0.309 0.114,0.03 0.115,-0.011 0.158,0.129 -0.008,0.199 -0.41,0.078 -0.142,-0.146 -0.031,-0.265 -0.231,0.089 -0.088,0.092 -0.068,0.013 -0.152,-0.276 -0.439,-0.015 -0.29,-0.146 0.144,-0.153 0.021,-0.148 0.189,-0.08 0.191,0.071 0.193,-0.107 0.137,0.027 0.101,-0.068 0.387,-0.043 z m -90.802,1.467 -0.166,0.129 -0.253,-0.125 0.085,-0.179 0.04,-0.247 0.153,-0.196 0.05,-0.23 -0.291,-0.629 0.145,-0.021 0.115,0.068 0.193,0.418 0.168,0.251 -0.067,0.34 z m 17.737,-0.988 0.081,0.046 0.099,-0.145 0.185,0.198 0.115,0.099 0.156,0.099 -0.154,0.004 -0.062,0.091 -0.04,0.018 -0.596,-0.319 -0.38,0.103 -0.261,-0.093 -0.075,-0.064 0.141,-0.175 0.129,-0.401 0.261,0.101 0.063,0.124 -0.016,0.037 0.171,0.075 z m 69.516,0.031 -0.121,0.008 -0.103,-0.163 -0.277,-0.181 -0.172,-0.312 0.654,0.515 z m -5.88,-0.505 -0.014,0.086 -0.088,-0.12 -0.058,-0.029 0.063,-0.3 0.032,-0.051 0.052,0.205 z m -63.888,-0.183 0.025,0.069 -0.132,-0.078 -0.081,-0.047 -0.053,-0.043 -0.293,-0.381 0.125,0.024 0.325,0.335 z m -3.943,-1.344 -0.315,0.016 -0.091,-0.036 0.039,-0.262 0.096,-0.158 0.143,0.003 0.159,0.236 z m 67.737,-0.28 -0.101,0.031 -0.029,-0.011 -0.03,-0.112 0.056,-0.19 0.117,-0.002 0.051,0.031 0.009,0.14 z m -0.133,-0.416 -0.096,0.092 -0.091,-0.031 -0.055,-0.118 0.018,-0.085 0.076,-0.055 0.095,0.041 z m -67.138,0.354 -0.058,0.038 -0.239,-0.354 0.06,-0.204 0.058,-0.052 0.132,0.125 0.104,0.13 0.076,0.155 z m 1.063,-0.38 0.015,0.08 -0.257,-0.161 -0.008,-0.117 0.034,-0.054 0.153,0.125 z m 1.151,-0.093 -0.175,0.082 -0.221,-0.255 0.008,-0.059 0.021,-0.045 0.041,-0.029 0.133,0.132 0.159,0.047 z m -3.401,0.244 -0.052,0.107 -0.104,-0.079 -0.548,-0.12 -0.185,-0.013 -0.474,-0.132 -0.145,-0.07 -0.102,-0.092 0.034,-0.169 0.071,-0.102 0.041,-0.284 0.12,-0.116 0.236,0.211 0.261,0.182 0.151,0.083 0.461,0.186 0.162,0.093 z m 1.112,-0.841 0.018,0.153 -0.188,-0.037 -0.135,-0.18 0.112,-0.128 0.07,-0.046 0.07,0.17 z m -0.722,0.497 -0.083,0.08 -0.141,-0.019 -0.149,-0.094 -0.194,-0.169 -0.219,-0.151 -0.276,-0.095 -0.172,-0.029 -0.069,-0.035 0.066,-0.293 0.182,-0.018 0.588,0.272 0.189,0.148 z m 2.409,-0.866 0.179,0.122 0.146,-0.08 -0.007,0.104 -0.029,0.1 -0.172,0.287 -0.287,-0.066 -0.067,-0.093 -0.021,-0.069 0.042,-0.043 0.024,-0.141 h 0.124 z m 1.573,-0.099 0.018,0.209 0.159,0.102 0.042,0.154 -0.029,0.247 -0.149,0.285 -0.067,0.075 -0.199,-0.058 -0.067,-0.095 -0.026,-0.074 0.029,-0.053 -0.147,-0.067 0.095,-0.109 -0.065,-0.153 -0.407,0.096 -0.119,0.003 -0.021,-0.174 0.018,-0.07 0.313,-0.22 0.187,-0.041 0.201,0.044 z m -6.057,0.63 -0.129,0.084 -0.156,-0.132 -0.129,-0.191 -0.066,-0.199 -0.062,-0.326 -0.015,-0.234 0.078,-0.137 0.057,0.005 0.229,0.139 0.153,0.236 0.084,0.074 0.016,0.217 -0.055,0.248 z m -13.879,-1.324 0.608,0.784 0.247,0.105 0.328,0.356 0.08,0.124 -0.083,0.25 -0.072,0.714 -0.157,0.178 -0.383,-0.088 -0.004,-0.125 -0.222,-0.538 -0.399,-0.3 -0.158,-0.016 -0.102,-0.307 -0.203,-0.363 -0.609,-0.664 0.463,0.005 0.225,-0.162 0.052,-0.129 0.036,-0.033 z m 14.061,0.016 0.021,0.358 -0.208,-0.094 -0.163,-0.142 -0.262,-0.105 -0.315,-0.034 -0.232,-0.093 -0.162,-0.166 -0.007,-0.077 0.016,-0.062 0.052,-0.049 1.199,0.322 z m 62.857,1.294 -0.535,0.473 -0.163,0.229 -0.143,0.246 -0.211,0.273 -0.242,0.241 -0.121,0.071 -0.299,0.13 -0.172,0.05 -0.325,0.017 -0.975,0.192 -0.32,0.022 -0.32,-0.008 -0.604,-0.048 -0.125,-0.025 -0.242,-0.248 -0.271,-0.196 -0.24,-0.021 -0.245,0.021 -1.765,0.014 -0.617,0.037 -0.615,0.087 -0.334,-0.04 -0.332,-0.098 -0.25,-0.035 -0.251,0.01 -1.158,0.148 -0.292,-0.014 -0.586,-0.189 -0.341,-0.038 -0.334,0.051 -0.312,0.17 -0.117,0.114 -0.323,0.39 -0.182,0.284 -0.138,0.354 -0.118,0.361 -0.063,0.296 -0.004,0.31 0.055,0.348 0.088,0.344 0.097,0.263 0.402,0.608 0.082,0.086 0.437,0.171 0.258,0.22 0.245,0.61 0.177,0.312 0.171,0.004 0.191,-0.022 0.335,0.04 0.329,0.08 0.323,-0.187 0.18,-0.354 0.181,-0.263 0.433,-0.5 0.248,-0.231 0.156,-0.076 0.161,0.033 0.136,0.132 0.159,0.105 0.324,0.057 0.327,-0.035 0.348,-0.163 0.125,-0.1 0.104,-0.126 0.295,-0.103 0.701,-10e-4 0.361,0.037 0.646,-0.041 -0.01,-0.092 -0.125,-0.098 -0.031,-0.079 0.12,-0.051 0.416,-0.114 0.424,-0.081 0.308,0.058 0.276,0.159 0.106,0.164 0.047,0.197 -0.106,0.511 -0.052,0.119 -0.22,0.061 -0.207,-0.068 -0.206,-0.264 -0.289,-0.097 -0.411,0.08 -0.142,0.076 -0.127,0.105 -0.231,0.274 -0.193,0.309 -0.419,0.481 -0.483,0.418 -0.234,0.16 -0.263,0.107 -0.838,0.277 -0.221,0.206 -0.172,0.267 -0.19,0.091 -0.22,0.029 -0.166,-0.05 -0.333,-0.151 -0.11,0.124 -0.019,0.189 0.164,0.067 0.266,0.209 0.204,0.295 0.132,0.063 0.293,0.096 0.122,0.092 0.221,0.253 0.347,0.588 0.117,0.318 0.194,0.26 0.586,0.441 0.032,0.125 -0.036,0.146 0.046,0.132 0.209,0.253 0.051,0.164 -0.229,0.208 -0.013,0.3 -0.142,0.404 -0.03,0.136 0.004,0.124 0.099,0.115 0.114,0.091 0.159,0.048 0.138,0.079 0.266,0.315 0.138,0.083 0.088,0.115 -0.008,0.171 0.12,0.1 0.112,0.179 0.171,0.043 0.079,-0.051 0.055,-0.077 0.14,0.029 0.081,0.125 0.049,0.16 0.016,0.176 -0.007,0.334 -0.071,0.12 -0.152,-0.006 -0.275,-0.138 -0.013,0.1 0.018,0.096 -0.14,0.032 -0.159,-0.014 -0.402,0.013 -0.742,0.208 -0.26,0.123 -0.169,0.223 -0.013,0.155 0.065,0.325 -0.099,0.114 -0.339,0.043 -0.476,-0.087 -0.286,-0.087 -0.16,-0.073 -0.208,-0.219 -0.079,-0.28 0.154,-0.833 0.043,-0.107 0.075,-0.095 0.078,-0.151 0.02,-0.178 -0.228,-0.217 -0.341,-0.086 -0.289,-0.181 -1.118,-1.016 -0.063,-0.098 -0.002,-0.168 0.045,-0.157 0.367,-0.555 0.047,-0.106 0.044,-0.438 -0.01,-0.361 -0.042,-0.361 -0.173,-0.227 -0.311,-0.069 -0.321,-0.011 -0.313,0.072 -0.309,0.182 -0.568,0.382 -0.225,0.223 -0.02,0.289 0.13,0.283 0.167,0.258 0.091,0.283 0.123,1.003 -0.003,0.113 -0.146,0.292 -0.058,0.652 0.063,0.921 0.099,0.565 -0.042,0.307 -0.266,0.66 -0.082,0.362 -0.005,0.149 0.312,0.69 0.073,0.273 0.038,0.283 -0.333,-0.139 -0.154,0.007 -0.158,0.042 -0.346,0.045 -0.354,0.006 -0.123,0.052 -0.25,0.184 -0.151,0.074 -0.132,0.014 -0.448,-0.23 -0.266,-0.25 -0.243,-0.271 -0.046,-0.31 0.086,-0.318 0.121,-0.34 0.241,-0.565 -0.013,-0.379 0.083,-0.311 0.138,-0.301 0.051,-0.278 0.032,-1.088 -0.033,-0.097 -0.331,-0.646 -0.039,-0.108 -10e-4,-0.174 0.036,-0.167 0.006,-0.149 -0.075,-0.115 -0.134,-0.105 -0.163,-0.046 -0.342,0.045 -0.689,0.174 -0.203,-0.153 -0.151,-0.236 -0.099,-0.33 -0.058,-0.345 0.026,-0.324 0.102,-0.313 -0.081,-0.219 -0.127,-0.238 -10e-4,-0.123 0.071,-0.107 0.125,-0.09 0.151,-0.052 0.143,-0.095 0.377,-0.319 0.12,-0.281 0.008,-0.346 0.097,-0.33 0.192,-0.305 0.227,-0.282 0.073,-0.291 -0.11,-0.462 0.044,-0.21 -0.038,-0.247 -0.004,-0.244 0.141,-0.459 0.418,-0.939 0.408,-0.499 0.162,-0.131 0.211,0.232 0.161,0.273 0.003,-0.247 -0.047,-0.237 -0.162,-0.565 -0.141,-1.102 0.039,-0.104 0.143,0.017 0.146,-0.097 0.076,-0.173 -0.151,-0.409 -0.007,-0.145 0.291,-0.575 0.239,-0.209 0.104,-0.129 0.06,-0.351 0.123,-0.132 0.157,-0.095 0.205,-0.243 0.112,-0.306 0.068,-0.023 0.08,-0.011 0.123,0.267 0.14,0.108 0.282,0.087 0.241,-0.103 0.066,-0.134 0.092,-0.115 0.145,-0.12 0.123,-0.137 0.138,-0.317 0.181,-0.289 0.123,-0.101 0.149,-0.063 0.167,-0.039 0.16,-0.005 0.355,0.181 0.206,0.036 0.211,-0.013 0.133,0.03 0.101,0.082 0.091,0.164 0.114,0.142 0.105,0.07 0.115,0.033 0.773,-0.058 0.676,0.16 0.922,0.036 0.316,0.094 0.304,0.123 0.371,0.216 0.135,0.048 0.153,-0.012 0.188,-0.204 0.149,-0.044 0.15,-0.008 0.594,0.038 1.596,0.25 0.235,-0.034 0.963,-0.479 0.386,-0.454 0.344,-0.126 0.117,-0.206 0.07,-0.246 0.122,-0.066 0.289,-0.07 0.113,-0.073 0.206,-0.303 0.242,-0.268 0.119,-0.081 0.342,0.043 0.151,0.117 0.192,0.394 -0.033,0.066 -0.227,0.196 -0.066,0.083 -0.252,0.554 -0.172,0.272 z m -65.055,-3.021 0.151,0.229 0.032,0.148 -0.111,0.17 -0.041,0.261 -0.328,0.205 -0.286,-0.049 -0.092,-0.073 -0.182,-0.396 0.019,-0.336 0.113,-0.128 0.266,0.02 0.269,-0.184 z m 73.037,3.431 0.203,0.062 0.213,-0.017 0.105,-0.125 0.028,-0.162 0.107,-0.301 0.247,-0.204 0.174,-0.032 0.123,-0.086 -0.021,-0.223 0.013,-0.219 0.183,-0.234 0.565,-0.326 0.323,-0.116 0.419,-0.037 0.047,0.125 -0.048,0.178 0.081,0.269 -0.041,0.728 -0.095,0.103 -0.434,0.251 -0.472,0.201 -0.133,0.084 -0.117,0.2 0.009,0.199 0.387,0.265 0.599,0.248 0.123,0.116 0.08,0.195 0.022,0.218 0.145,0.104 0.203,0.05 0.134,0.103 0.101,0.145 -1.008,-0.339 -0.263,-0.149 -0.318,-0.018 -0.315,-0.045 -0.321,-0.13 -0.345,-0.031 -0.165,0.094 -0.064,0.184 -0.039,0.206 0.075,0.256 -0.006,0.156 -0.065,0.281 0.25,0.831 0.313,0.66 0.461,0.687 0.227,0.236 0.255,0.213 -0.414,-0.063 -0.125,-0.229 -0.524,-0.228 -0.101,-0.136 -0.341,-0.652 -0.1,-0.122 -0.315,-0.222 -0.14,-0.163 -0.047,-0.22 0.036,-0.231 -0.018,-0.32 0.011,-0.318 0.065,-0.388 -0.112,-0.137 -0.147,-0.128 -0.171,-0.297 -0.052,-0.338 0.015,-0.194 0.07,-0.172 0.095,-0.149 0.021,-0.146 -0.246,-0.211 -0.258,-0.602 -0.023,-0.312 0.328,-0.601 -0.007,-0.292 0.065,-0.173 0.034,-0.184 0.172,-0.4 0.28,-0.341 0.474,-0.478 0.18,-0.104 0.203,-0.068 0.018,0.117 -0.033,0.104 -0.349,0.486 -0.047,0.11 -0.01,0.204 0.168,0.121 0.181,0.247 0.036,0.328 0.007,0.35 -0.04,0.352 -0.068,0.118 -0.287,0.354 -0.653,0.415 -0.055,0.103 0.005,0.114 0.12,0.138 z m -85.314,-3.423 -0.017,0.063 -0.289,-0.293 -0.328,-0.163 0.135,-0.042 0.271,0.045 0.109,0.042 0.104,0.146 z m 87.337,0.066 -0.443,0.048 -0.101,-0.133 -0.117,-0.6 0.315,-0.48 0.397,-0.282 0.271,-0.071 0.095,-0.004 0.242,0.346 -0.185,0.695 -0.211,0.355 z m -8.549,-1.673 -0.029,0.062 -0.104,-0.327 0.086,-0.164 0.125,0.06 0.031,0.058 -0.118,0.156 z m -81.23,0.813 -0.177,0.026 -0.169,-0.06 -0.141,-0.16 -0.755,-0.464 -0.234,-0.007 -0.164,-0.119 -0.199,-0.041 -0.213,-0.31 -0.044,-0.166 0.154,-0.081 0.096,-0.17 0.252,0.075 0.286,0.3 0.29,0.112 0.08,0.057 0.142,0.166 0.665,0.408 0.072,0.139 0.046,0.139 z m 34.867,-1.522 -0.137,0.146 -0.146,-0.091 0.226,-0.296 0.052,-0.02 z m -8.776,0.119 -0.117,0.011 -0.036,-0.083 0.005,-0.143 -0.01,-0.114 -0.034,-0.085 v -0.143 l 0.109,0.071 0.083,0.067 0.096,0.048 0.078,0.032 0.04,0.022 -0.076,0.202 z m 1.472,-0.821 -0.005,0.192 -0.193,-0.113 -0.039,-0.213 0.065,-0.069 0.133,0.037 z m 31.919,-0.345 -0.036,0.092 -0.24,-0.225 -0.062,-0.163 0.028,-0.127 0.25,-0.011 0.123,0.08 z m 22.451,-0.434 -0.071,0.085 -0.341,-0.156 0.018,-0.247 -0.046,-0.122 -0.092,-0.128 -0.037,-0.125 0.038,-0.137 0.21,0.175 0.118,0.278 0.161,0.264 z m 3.351,-0.929 -0.047,0.032 -0.101,-0.075 -0.063,-0.083 0.005,-0.083 0.071,-0.042 0.146,0.127 0.004,0.07 z m -0.372,-0.296 0.007,0.118 -0.171,-0.268 -0.065,-0.317 0.135,0.113 0.151,0.234 z m -24.795,-0.871 0.094,0.267 0.013,0.102 -0.52,0.14 -0.314,-0.328 0.066,-0.133 0.271,0.006 z m -26.853,1.387 -0.384,0.103 -0.223,-0.144 0.241,-0.177 0.084,-0.012 0.057,-0.035 0.019,-0.072 -0.433,-0.117 -0.125,-0.103 -0.117,-0.262 0.003,-0.167 0.557,-0.441 0.13,-0.047 0.021,0.183 0.386,0.462 0.017,0.308 -0.015,0.111 z m 23.117,-1.873 0.101,0.06 0.14,-0.002 0.165,-0.044 0.409,0.042 0.721,0.009 0.498,0.105 0.486,0.297 0.242,0.06 0.104,0.002 -0.023,0.023 -0.192,0.081 -0.091,0.16 0.265,0.245 0.018,0.163 0.205,0.146 0.251,0.227 0.01,0.074 0.084,0.102 0.044,0.125 -0.177,0.124 -0.237,0.023 -0.177,-0.117 -0.16,-0.146 -0.043,0.181 -0.125,0.104 -0.456,-0.03 -0.325,0.001 -0.324,0.045 0.162,0.028 0.146,0.058 0.505,0.462 0.109,0.171 -0.177,0.34 0.086,0.139 0.195,0.08 0.238,0.169 0.169,0.017 0.122,0.096 0.005,0.166 0.071,0.15 -0.193,0.061 0.19,0.04 0.171,0.077 -0.093,0.078 -0.072,0.095 0.078,0.051 0.233,0.087 0.102,0.081 0.053,0.217 0.228,0.355 0.415,0.458 0.091,0.167 v 0.154 l -0.07,0.132 -0.237,0.154 -0.188,0.204 -0.023,0.074 -0.258,0.094 0.117,0.069 0.094,0.094 0.18,0.283 0.427,0.46 0.215,0.172 0.883,0.624 0.469,0.272 0.601,0.622 0.311,0.144 0.06,0.173 -0.259,0.266 -0.379,0.133 -0.625,0.071 -0.626,-0.093 -0.325,-0.076 -0.281,-0.153 -0.222,-0.307 -0.294,-0.166 0.112,0.186 0.072,0.19 -0.038,0.207 -0.114,0.162 -0.198,0.119 -0.212,0.097 -0.09,0.068 -0.538,1.083 -0.087,0.293 -0.164,1.216 -0.003,0.344 0.242,0.643 0.021,0.337 0.047,0.146 -0.031,0.121 -0.115,0.072 -0.461,0.196 -0.326,0.163 -0.265,0.232 -0.214,0.289 -0.188,0.209 -0.25,0.1 -0.182,-0.015 -0.146,-0.096 -0.103,-0.186 -0.06,-0.203 -0.037,0.15 0.007,0.147 0.086,0.157 0.032,0.166 -0.049,0.169 -0.107,0.135 -0.29,0.147 -0.161,0.126 -0.031,0.223 -0.076,0.125 -0.111,0.097 -0.409,0.222 -0.092,0.089 -0.067,0.113 0.218,-0.018 0.199,0.018 0.015,0.221 0.063,0.165 -0.079,0.361 -0.309,0.244 0.155,0.051 0.139,0.08 0.309,0.059 0.104,0.256 -0.046,0.31 -0.057,0.278 -0.221,0.077 -0.138,-0.051 -0.137,0.005 -0.101,0.084 -0.026,0.144 0.191,-0.071 -0.011,0.36 -0.052,0.351 -0.063,0.194 -0.117,0.158 -0.177,0.051 -0.167,-0.119 -0.034,0.138 0.05,0.116 0.239,0.282 -0.146,0.062 -0.106,0.096 -0.049,0.14 -0.258,0.321 -0.115,0.236 -0.049,0.252 -0.121,0.2 -1.96,0.872 -1.584,0.734 -0.114,-0.05 -0.078,-0.112 -0.053,-1.141 -0.197,-0.583 -0.028,-0.329 -0.224,0.293 -0.137,-0.03 -0.148,-0.075 -0.111,-0.096 -0.009,-0.126 0.12,-0.362 -0.145,0.199 -0.159,0.153 -0.164,-0.019 -0.141,-0.076 -0.052,-0.118 -0.075,-0.018 -0.347,0.322 -0.458,0.173 -0.255,-0.003 -0.199,-0.099 0.009,-0.246 -0.021,-0.24 -0.055,-0.141 -0.123,-0.051 -0.114,0.018 -0.328,0.125 -0.117,-0.015 -0.066,0.063 -0.869,-0.874 -0.174,0.708 -0.6,0.376 -0.442,0.219 -0.44,-0.082 -0.444,-0.14 -0.444,0.169 -0.482,0.414 -0.133,0.063 -0.139,-10e-4 -0.103,-0.054 0.036,-0.314 0.003,-0.314 -0.035,-0.699 -0.038,-0.138 -0.139,-0.192 -0.184,-0.139 -0.102,0.101 -0.093,0.139 -0.367,-0.006 -0.357,-0.111 -0.303,0.063 -0.604,0.277 -0.32,0.043 -0.172,-0.063 -0.11,-0.149 0.063,-0.137 0.133,-0.105 -0.248,0.083 -0.211,0.14 -0.093,0.09 -0.099,-0.045 -0.263,-0.316 -0.552,0.118 -0.075,0.036 -0.136,0.108 -0.13,-0.054 -0.065,-0.115 -0.023,-0.66 -0.282,-1.269 -0.076,-0.648 -0.062,-0.153 -0.323,-0.233 0.011,-0.334 0.169,-0.28 0.034,-0.326 -0.047,-0.354 -0.101,-0.346 -0.128,-0.261 -0.181,-0.223 -0.241,-0.25 -0.297,-0.187 -0.64,-0.21 -0.337,0.019 -0.127,-0.083 -0.083,-0.107 0.034,-0.21 0.114,-0.144 0.153,-0.036 0.019,-0.082 -0.325,-0.169 -0.271,-0.23 -0.086,-0.138 -0.026,-0.152 0.002,-0.351 0.078,-0.222 0.044,-0.12 0.083,-0.371 0.177,-0.113 -0.028,-0.068 -0.076,-0.051 -0.111,-0.122 -0.091,-0.14 -0.206,-0.238 -0.365,-0.286 -0.062,-0.494 -0.047,-0.728 0.029,-0.331 0.117,-0.619 0.203,-0.195 0.162,-0.054 0.121,-0.083 -0.101,-0.012 -0.086,0.031 -0.153,0.021 0.127,-0.554 0.057,-0.16 0.255,-0.31 0.298,-0.274 0.127,-0.323 0.17,-0.283 0.703,-0.292 -0.253,0.366 0.028,0.133 0.061,0.118 0.182,0.083 0.052,0.451 0.229,0.256 0.231,0.234 0.17,0.115 0.187,0.167 0.131,0.155 0.138,0.13 0.208,0.127 0.563,0.541 0.234,0.159 0.175,0.159 0.125,0.056 0.307,-0.045 0.906,-0.388 0.164,-0.025 0.295,-0.067 0.52,0.021 0.552,0.132 0.179,0.004 0.17,-0.079 0.235,0.023 0.221,0.041 0.11,-0.034 0.32,-0.283 0.435,-0.084 0.142,-0.28 0.108,-0.264 0.052,-0.281 0.182,-0.113 0.255,-0.098 0.378,-0.124 1.312,-0.022 0.127,0.054 0.027,0.144 -0.027,0.109 0.052,0.065 0.173,0.006 0.162,0.066 0.653,0.226 0.278,0.07 0.154,-0.018 0.307,0.202 0.167,-0.069 0.221,-0.142 0.209,-0.191 0.189,-0.151 0.272,-0.059 0.354,0.008 0.419,-0.052 0.315,-0.081 0.352,0.134 0.094,-0.042 0.06,-0.131 0.182,-0.287 0.081,-0.193 0.07,-0.37 0.05,-0.088 0.134,-0.051 0.136,-0.07 0.037,-0.111 0.049,-0.129 -0.04,-0.108 -0.078,-0.091 -0.082,-0.309 0.026,-0.141 0.051,-0.105 0.141,-0.053 0.372,-0.227 0.329,-0.266 0.182,-0.13 0.079,-0.084 0.005,-0.122 -0.144,-0.127 -0.138,-0.061 -0.01,-0.147 0.005,-0.102 0.042,-0.096 -0.021,-0.093 -0.001,-0.139 0.087,-0.15 0.203,-0.222 0.161,-0.144 0.178,0.089 0.207,-0.041 0.196,-0.072 0.11,-0.262 0.017,-0.125 -0.026,-0.1 0.068,-0.373 0.016,-0.054 0.13,-0.235 0.013,-0.158 -0.073,-0.367 0.045,-0.278 0.022,-0.575 0.077,-0.103 0.088,-0.298 0.145,-0.311 0.29,-0.169 0.153,-0.222 0.066,-0.042 0.101,-0.002 0.352,0.162 0.315,-0.18 0.287,-0.021 0.236,0.024 0.133,0.074 0.131,0.053 0.281,-0.175 z m 28.802,0.913 -0.112,0.058 -0.183,-0.021 -0.019,-0.142 0.185,-0.255 0.121,-0.269 -0.13,-0.067 -0.126,-0.172 -0.005,-0.2 0.104,-0.37 0.154,0.03 0.148,0.16 0.061,0.3 0.096,0.228 -0.206,0.31 z m -85.102,-3.345 0.344,0.025 0.638,-0.152 0.352,0.015 0.33,0.11 0.295,0.063 0.731,-0.081 0.138,0.021 0.133,0.063 0.112,0.1 0.335,0.364 0.566,0.448 0.163,0.287 0.092,0.323 0.06,0.075 0.64,0.617 0.069,0.258 -0.09,0.357 0.186,0.284 0.62,0.267 0.366,0.194 0.078,0.119 0.053,0.142 0.203,0.21 0.255,0.137 0.792,0.361 1.041,0.754 0.591,0.358 0.488,0.544 0.177,0.26 0.146,0.281 0.297,0.409 0.505,0.505 0.129,0.154 0.136,0.223 0.157,0.207 0.187,0.19 0.224,0.146 0.229,0.047 0.37,0.365 0.198,0.114 -0.031,-0.286 -0.167,-0.25 0.003,-0.15 0.028,-0.135 0.138,-0.113 0.165,-0.032 0.309,0.104 0.503,0.433 0.213,0.252 0.159,0.348 0.133,0.361 0.201,0.18 0.276,0.063 0.307,0.026 0.281,0.111 0.661,0.5 0.219,0.235 0.166,0.276 0.113,0.327 0.072,0.343 0.043,0.079 0.424,0.414 0.224,0.175 0.271,0.085 0.796,0.093 0.279,0.143 0.232,0.238 0.097,0.242 -0.165,0.214 -0.622,0.328 -0.662,0.227 0.644,-0.078 0.327,-0.095 0.3,-0.148 0.297,-0.189 0.472,-0.264 0.174,-0.054 0.206,0.019 0.188,0.075 0.28,0.259 0.264,0.274 0.197,0.319 0.123,0.355 -0.226,0.186 -0.329,0.137 -0.45,0.343 -0.048,0.136 0.092,0.087 -0.109,0.252 0.252,0.156 0.039,0.132 -0.219,0.189 0.021,0.117 0.264,0.5 0.126,0.114 0.402,0.254 0.615,0.257 0.34,0.118 0.386,0.091 0.164,-0.002 0.29,-0.042 0.059,0.1 0.123,0.492 0.06,0.312 0.09,0.663 0.112,0.275 -0.007,0.336 0.146,0.286 0.304,0.183 0.321,0.149 0.151,0.146 -10e-4,0.22 -0.052,0.174 -0.109,0.135 -0.333,0.287 -0.06,0.124 -0.047,0.316 0.057,0.145 0.133,0.008 0.105,-0.076 0.4,-0.424 0.107,-0.074 0.151,-0.06 0.154,-0.038 0.732,-0.003 0.31,0.067 0.276,0.138 0.242,0.173 0.892,1.105 0.407,0.61 0.032,0.152 0.007,0.158 -0.07,0.122 -0.37,0.417 -0.046,0.115 -0.115,0.454 0.021,0.327 0.122,0.137 0.099,0.149 -0.008,0.135 -0.243,0.672 -0.025,0.115 0.154,1.093 0.01,0.296 -0.031,0.375 0.023,0.604 -0.2,1.868 -0.037,0.111 -0.153,0.286 -0.201,-0.002 -0.164,-0.05 -0.112,-0.109 -0.063,-0.135 -0.093,-0.111 -0.485,-0.345 -0.127,0.057 -0.495,0.428 -0.13,0.063 -0.165,-0.052 -0.26,-0.128 -0.815,-0.45 -0.05,0.144 -0.012,0.195 0.163,0.49 0.022,0.214 -0.147,0.042 -0.083,-0.009 -0.339,-0.284 -0.314,-0.315 -0.354,-0.426 -0.261,-0.202 -0.234,-0.226 -0.659,-0.858 -0.172,-0.131 -1.023,-0.605 -0.206,-0.144 -0.263,-0.25 -0.281,-0.223 -0.616,-0.351 -1.07,-0.89 -0.465,-0.511 -0.517,-0.824 -0.169,-0.21 -0.869,-0.618 -0.474,-0.374 -0.198,-0.215 -0.461,-0.749 -0.135,-0.252 -0.17,-0.223 -0.279,-0.181 -0.246,-0.212 -0.488,-0.677 -0.154,-0.27 -0.116,-0.292 0.021,-0.585 -1.035,-1.771 -0.26,-0.552 -0.242,-0.766 -0.052,-0.077 -0.565,-0.686 -0.199,-0.22 -0.242,-0.206 -0.197,-0.241 -0.391,-0.783 -0.144,-0.217 -0.203,-0.16 -0.739,-0.296 -0.274,-0.165 -0.218,-0.234 -0.133,-0.299 -0.145,-0.634 -0.349,-0.963 -0.391,-1.29 -0.263,-0.578 -0.302,-0.454 -0.087,-0.105 -1.34,-0.817 -0.229,-0.121 -0.243,-0.072 -0.347,-0.052 -0.265,-0.211 -0.109,-0.379 -0.06,-0.508 -0.066,-0.303 -0.073,-0.172 -0.56,-0.359 -0.22,-0.284 -0.183,-0.313 -0.167,-0.242 -0.616,-0.836 -0.211,-0.219 -0.261,-0.153 -0.773,-0.162 -0.227,-0.139 -0.375,-0.475 -0.227,-0.242 -0.68,-0.533 -1.15,-1.115 -0.234,-0.278 -0.176,-0.29 -0.143,-0.311 -0.491,-0.862 0.041,-0.174 0.073,-0.181 -0.011,-0.15 -0.054,-0.148 0.011,-0.133 0.146,-0.079 0.327,-0.101 0.339,0.012 0.313,0.043 0.304,0.083 0.292,0.181 0.523,0.458 0.297,0.159 0.33,0.077 z m -3.174,-1.633 -0.055,0.079 -0.167,-0.041 -0.183,-0.255 0.068,-0.049 0.113,0.026 0.216,0.059 0.018,0.095 z"
       fill="#cccccc"
       stroke="#ffffff"
       stroke-width="0.5"
       id="path6751" />
  </g>
</svg>
