<?xml version="1.0" encoding="UTF-8" standalone="no"?>
<svg
   width="978.45483"
   height="43.68655"
   viewBox="0 0 978.45483 43.68655"
   fill="none"
   version="1.1"
   id="svg520"
   xmlns="http://www.w3.org/2000/svg"
   xmlns:svg="http://www.w3.org/2000/svg">
  <defs
     id="defs524" />
  <g
     id="New_Layer_1653409134.6897252"
     style="display:inline"
     transform="translate(-27.725602,-452.44987)">
    <path
       d="m 1004.17,471.385 0.09,0.053 0.07,0.072 0.03,0.1 v 0.025 l -0.05,-10e-4 -0.07,-0.031 -0.04,-0.042 -0.03,-0.011 v -0.009 l 0.05,0.006 0.07,0.042 0.04,0.019 v -0.049 l -0.06,-0.085 -0.03,-0.029 -0.05,-0.025 -0.05,-0.017 -0.03,0.015 -0.02,0.007 -0.01,-0.02 0.01,-0.018 0.02,-0.018 z m 1.72,1.031 -0.02,0.021 -0.02,-0.018 0.02,-0.033 0.01,-0.028 0.02,0.015 z m -0.42,3.71 -0.03,0.013 -0.03,-0.004 -0.02,-0.019 v -0.03 l 0.03,-0.021 0.03,0.007 0.03,0.027 z m -2.75,0.133 0.02,0.019 0.04,-0.005 0.03,-0.003 -0.02,0.019 -0.07,0.008 -0.04,-0.048 0.05,-0.037 0.04,-0.006 v 0.01 0.011 h -0.02 l -0.03,0.009 z m -6.453,0.459 0.033,0.037 v 0.018 l -0.016,-0.003 -0.048,-0.011 -0.016,-0.022 0.035,0.015 0.015,-0.003 -0.032,-0.033 -0.028,-0.024 -0.021,-0.01 v -0.012 l 0.026,0.006 z m -967.7497,-23.994 0.224,0.236 -0.043,0.119 -0.162,-0.011 -0.074,-0.042 0.126,-0.021 0.021,-0.044 -0.058,-0.069 -0.077,-0.048 h -0.053 l -0.013,0.095 -0.087,-0.074 0.051,-0.074 0.062,-0.049 z m 932.6197,2.219 -0.178,0.093 -0.054,-0.015 0.211,-0.132 -10e-4,0.016 z m -0.352,0.217 -0.208,0.108 -0.056,-0.058 0.075,-0.002 0.14,-0.104 0.169,-0.008 -0.02,0.058 z m -926.6637,3.337 0.467,0.323 -0.198,0.023 -0.488,-0.156 -0.446,-0.319 0.133,-0.069 0.065,0.115 0.203,0.107 0.12,-0.225 0.079,-0.051 -0.356,-0.232 0.141,0.012 0.337,0.158 z m 927.1527,0.027 0.014,0.064 -0.16,-0.175 -0.095,-0.113 0.006,-0.049 0.043,0.031 0.053,0.055 0.035,0.044 z m 0.031,0.358 -0.102,0.012 0.076,-0.04 0.021,-0.055 -0.012,-0.173 0.04,0.014 0.014,0.071 0.007,0.104 z m 0.024,1.047 -0.075,0.01 0.049,-0.057 0.321,-0.063 0.028,-0.018 0.052,0.035 -10e-4,0.033 -0.023,0.017 -0.159,10e-4 -0.125,0.03 z m -0.016,0.917 0.151,0.11 -0.02,0.076 -0.051,0.087 -0.197,0.222 -0.06,-0.021 0.192,-0.201 0.074,-0.133 -0.11,-0.102 -0.044,0.022 h -0.018 l -0.038,-0.095 h 0.038 z m 4.143,5.06 -0.091,0.076 -0.035,-0.069 0.045,-0.085 -0.076,-0.353 -0.126,-0.048 -0.075,-0.106 h 0.036 l 0.126,0.097 0.101,0.044 0.059,0.232 z m -13.913,0.2 -0.026,0.006 -0.053,-0.029 0.007,-0.036 0.037,-0.016 0.047,0.027 z m 14.655,0.943 0.017,0.144 -0.064,-0.019 -0.021,-0.056 -0.021,-0.145 -0.067,-0.142 0.076,0.038 0.063,0.111 z m -925.3807,8.027 -0.008,0.017 -0.034,-0.022 -0.066,-0.041 -0.056,-0.045 -0.001,-0.019 0.079,-0.027 0.101,-0.021 0.022,0.029 -0.019,0.041 z m -2.547,4.305 -0.065,0.015 h -0.076 l -0.038,-0.037 -0.002,-0.03 h 0.026 l 0.024,0.005 0.108,0.005 0.028,0.022 z m 11.454,16.4 -0.023,0.045 -0.044,-0.016 -0.026,-0.057 -0.009,-0.062 0.017,-0.05 0.029,0.002 0.033,0.062 z"
       fill="#cccccc"
       stroke="#ffffff"
       stroke-width="0.5"
       id="path6372" />
  </g>
</svg>
