<?xml version="1.0" encoding="UTF-8" standalone="no"?>
<svg
   width="4.1553974"
   height="3.465565"
   viewBox="0 0 4.1553974 3.465565"
   fill="none"
   version="1.1"
   id="svg520"
   xmlns="http://www.w3.org/2000/svg"
   xmlns:svg="http://www.w3.org/2000/svg">
  <defs
     id="defs524" />
  <g
     id="New_Layer_1653409134.690056"
     style="display:inline"
     transform="translate(-596.75775,-495.31239)">
    <path
       d="m 597.686,497.092 -0.053,0.038 -0.256,-0.163 -0.146,-0.038 -0.215,-0.263 0.083,-0.91 0.069,-0.117 0.052,-0.047 0.119,-0.017 0.145,0.114 -0.038,0.585 0.191,0.394 0.123,0.313 z m 2.836,0.514 0.141,0.394 -10e-4,0.297 -0.06,0.094 -0.126,-0.062 -0.232,-0.236 -0.441,-0.23 0.203,-0.019 0.118,0.023 0.125,-0.021 0.078,-0.13 0.016,-0.077 0.11,-0.062 z m -1.93,0.643 0.197,0.175 -0.548,-0.072 -0.086,-0.158 -0.004,-0.116 0.205,0.025 z"
       fill="#cccccc"
       stroke="#ffffff"
       stroke-width="0.5"
       id="path8216" />
  </g>
</svg>
