<?xml version="1.0" encoding="UTF-8" standalone="no"?>
<svg
   width="6.2703214"
   height="5.5105462"
   viewBox="0 0 6.2703214 5.5105462"
   fill="none"
   version="1.1"
   id="svg520"
   xmlns="http://www.w3.org/2000/svg"
   xmlns:svg="http://www.w3.org/2000/svg">
  <defs
     id="defs524" />
  <g
     id="New_Layer_1653409134.6916852"
     style="display:inline"
     transform="translate(-605.79415,-375.31792)">
    <path
       d="m 610.351,375.936 -0.014,0.119 0.09,0.355 0.201,0.387 0.165,0.313 0.021,0.147 -0.151,-0.021 -0.115,-0.059 -0.221,-0.062 -0.427,0.415 -0.258,0.226 -0.007,0.077 0.344,0.087 0.253,-0.002 0.176,-0.061 0.149,0.097 0.098,0.256 0.039,0.208 0.234,0.739 0.194,0.249 0.242,0.44 0.09,0.228 0.052,0.191 0.148,0.282 -0.488,0.007 -0.615,0.01 -0.499,0.006 -0.563,0.007 -0.248,-0.301 -0.083,-0.33 -0.09,-0.339 -0.247,-0.484 -0.826,-0.117 -0.439,-0.063 -0.723,-0.092 -0.542,-0.069 0.456,-0.522 0.212,-0.281 0.383,-0.609 0.197,-0.435 0.19,-0.483 0.164,-0.376 0.034,-0.069 0.095,-0.128 0.21,-0.131 0.303,-0.123 0.515,-0.054 0.362,-0.003 0.082,0.006 0.228,0.061 z m 0.833,1.153 -0.161,0.072 -0.108,-0.031 -0.104,-0.173 -0.171,-0.43 0.093,-0.161 -0.003,-0.069 0.019,-0.052 0.053,-0.033 0.055,-0.203 0.074,-0.062 0.12,0.137 0.338,0.495 -0.002,0.202 -0.02,0.081 z"
       fill="#cccccc"
       stroke="#ffffff"
       stroke-width="0.5"
       id="path3379" />
  </g>
</svg>
