<?xml version="1.0" encoding="UTF-8" standalone="no"?>
<svg
   width="5.2319684"
   height="1.9617982"
   viewBox="0 0 5.2319684 1.9617982"
   fill="none"
   version="1.1"
   id="svg520"
   xmlns="http://www.w3.org/2000/svg"
   xmlns:svg="http://www.w3.org/2000/svg">
  <defs
     id="defs524" />
  <g
     id="New_Layer_1653409134.6920197"
     style="display:inline"
     transform="translate(-246.92103,-407.178)">
    <path
       d="m 251.676,407.588 -0.131,0.045 -0.102,-0.018 0.23,-0.123 0.059,-0.042 0.051,-0.022 h 0.053 l 0.067,0.025 v 0.019 z m -0.436,0.011 -0.028,0.017 -0.09,-0.013 -0.206,0.121 -0.089,-0.007 0.027,-0.042 0.043,-0.04 0.048,-0.029 0.045,-0.012 0.144,-0.024 0.068,-0.003 0.047,0.027 z m -3.903,1.063 0.091,0.057 0.114,-0.035 0.033,-0.063 0.433,0.046 0.065,0.123 -0.33,0.003 -0.148,0.079 -0.074,0.016 -0.283,-0.019 -0.041,-0.285 0.079,-0.03 z"
       fill="#cccccc"
       stroke="#ffffff"
       stroke-width="0.5"
       id="path7897" />
  </g>
</svg>
