<?xml version="1.0" encoding="UTF-8" standalone="no"?>
<svg
   width="17.16304"
   height="12.890539"
   viewBox="0 0 17.16304 12.890539"
   fill="none"
   version="1.1"
   id="svg520"
   xmlns="http://www.w3.org/2000/svg"
   xmlns:svg="http://www.w3.org/2000/svg">
  <defs
     id="defs524" />
  <g
     id="New_Layer_1653409134.6950014"
     style="display:inline"
     transform="translate(-533.97254,-271.67075)">
    <path
       d="m 550.333,275.666 -0.006,0.223 -0.069,0.377 -0.133,0.486 -0.138,0.376 -0.034,0.145 0.104,0.121 0.523,0.057 0.222,0.064 0.042,0.1 -0.115,0.129 -0.167,0.107 -0.075,0.102 -0.133,0.363 -0.867,-0.046 -0.115,0.074 -0.055,0.168 -0.044,0.194 -0.114,0.23 -0.229,0.2 -0.362,0.074 -0.295,0.136 -0.219,0.418 -0.164,0.56 0.003,0.396 0.021,0.221 -0.018,0.126 -0.112,0.137 -0.181,0.363 -0.148,0.401 -0.057,0.217 0.028,0.102 0.167,0.003 0.24,0.082 0.128,0.16 0.047,0.185 v 0.198 l -0.044,0.109 -0.193,0.079 -0.302,0.003 -0.176,-0.094 -0.036,-0.075 0.084,-0.191 -0.061,-0.239 -0.125,-0.133 -0.254,0.199 h -0.245 l -0.291,0.178 -0.191,0.284 -0.183,0.104 -0.496,-0.058 -0.123,0.125 -0.104,0.576 -0.058,0.112 -0.414,-0.024 -0.4,0.229 -0.451,0.185 -0.227,-0.128 -0.127,-0.145 -0.247,0.026 -0.267,0.064 -0.181,-0.035 -0.201,0.016 -0.39,0.111 -0.49,-0.036 -0.209,-0.095 -0.02,-0.091 0.015,-0.224 -0.005,-0.348 -0.078,-0.308 -0.235,-0.272 -0.247,-0.191 -0.313,-0.197 -0.232,-0.086 -0.127,-0.022 -0.029,-0.114 -0.046,-0.099 -0.109,-0.086 -0.232,-0.116 -0.198,-0.025 -0.16,0.187 -0.119,-0.234 -0.125,-0.421 0.013,-0.337 0.072,-0.337 0.34,-0.999 -0.017,-0.16 -0.249,-0.28 -0.305,-0.204 -0.169,-0.432 -0.62,-0.025 -0.585,0.024 -0.184,-0.021 -0.557,-0.181 -0.538,-0.292 -0.358,-0.171 -0.302,-0.192 -0.163,-0.202 -0.258,0.054 -0.173,0.002 10e-4,-0.035 -0.099,-0.357 0.104,-0.548 -0.187,-0.806 -0.307,-0.973 -0.022,-1.047 -0.023,-0.236 0.755,-0.594 0.951,-0.637 0.216,-0.058 0.875,-0.378 0.117,-0.03 0.791,0.07 0.62,0.09 0.522,-0.011 0.288,-0.097 0.26,0.081 0.209,0.285 0.216,-0.034 0.213,-0.184 1.17,0.168 0.264,-0.004 0.296,0.027 0.549,0.171 0.316,0.157 0.693,-0.095 0.298,-0.005 0.155,-0.062 0.479,-0.43 0.206,-0.074 0.19,-0.077 0.174,0.065 0.115,0.367 0.354,0.631 0.385,0.111 1.063,0.242 0.216,0.127 0.599,0.554 0.359,0.271 0.227,0.216 0.349,0.423 0.201,0.307 0.335,0.232 0.399,0.156 z m -15.816,1.92 -0.163,-0.038 0.32,-0.568 0.123,-0.37 0.086,-0.526 0.075,-0.166 0.002,0.239 -0.033,0.398 -0.203,0.677 z"
       fill="#cccccc"
       stroke="#ffffff"
       stroke-width="0.5"
       id="path9637" />
  </g>
</svg>
