<?xml version="1.0" encoding="UTF-8" standalone="no"?>
<svg
   width="2.6601088"
   height="3.7997615"
   viewBox="0 0 2.6601088 3.7997615"
   fill="none"
   version="1.1"
   id="svg520"
   xmlns="http://www.w3.org/2000/svg"
   xmlns:svg="http://www.w3.org/2000/svg">
  <defs
     id="defs524" />
  <g
     id="New_Layer_1653409134.6953237"
     style="display:inline"
     transform="translate(-491.51534,-300.96728)">
    <path
       d="m 492.865,301.451 -0.022,0.117 0.004,0.261 0.079,0.261 0.188,0.258 0.143,0.186 0.193,0.149 0.326,0.141 0.13,0.03 0.018,0.191 -0.025,0.202 -0.113,0.111 -0.106,0.161 -0.08,0.195 -0.083,0.375 -0.012,0.259 -0.188,-0.107 -0.099,-0.073 -0.172,-0.02 -0.171,0.06 -0.128,0.131 -0.177,0.04 -0.145,-0.04 -0.086,-0.098 -0.077,-0.053 -0.219,-0.066 -0.095,-0.143 0.073,-0.067 0.062,-0.106 0.053,-0.149 0.067,-0.137 -0.215,-0.379 -0.045,-0.116 -0.176,-0.213 0.002,-0.109 0.042,-0.103 -0.016,-0.081 0.025,-0.191 0.124,-0.181 0.082,-0.224 0.139,-0.306 0.307,-0.368 0.22,0.057 0.097,-0.002 0.058,0.135 z"
       fill="#cccccc"
       stroke="#ffffff"
       stroke-width="0.5"
       id="path6321" />
  </g>
</svg>
