<?xml version="1.0" encoding="UTF-8" standalone="no"?>
<svg
   width="5.8720045"
   height="7.104218"
   viewBox="0 0 5.8720045 7.104218"
   fill="none"
   version="1.1"
   id="svg520"
   xmlns="http://www.w3.org/2000/svg"
   xmlns:svg="http://www.w3.org/2000/svg">
  <defs
     id="defs524" />
  <g
     id="New_Layer_1653409134.6976185"
     style="display:inline"
     transform="translate(-527.18469,-328.12586)">
    <path
       d="m 529.568,328.437 -0.007,0.047 0.013,0.139 0.063,0.135 0.223,0.138 0.327,0.274 0.384,0.502 0.176,0.148 0.159,0.037 0.309,0.207 0.216,0.051 0.241,0.057 0.628,0.433 0.283,0.126 0.2,0.163 0.022,0.153 -0.009,0.095 -0.363,0.11 -0.063,0.169 -0.176,-0.02 -0.213,-0.001 -0.069,0.107 0.102,0.176 0.066,0.206 -0.053,0.283 -0.018,0.037 -0.051,-0.01 -0.3,0.164 -0.222,0.077 -0.201,0.039 -0.095,-0.079 -0.047,-0.107 0.009,-0.31 -0.037,-0.105 -0.068,-0.051 -0.138,0.073 -0.159,0.241 -0.149,0.278 -0.223,0.29 -0.184,0.278 -0.198,0.351 -0.135,0.289 0.14,0.164 0.086,0.226 -0.026,0.17 0.025,0.099 -0.044,0.297 -0.008,0.187 -0.438,-0.299 -0.18,-0.421 -0.64,-0.713 -0.733,-0.486 -0.039,-0.077 0.04,-0.094 0.035,-0.074 -0.153,-0.006 -0.106,0.06 -0.102,-0.017 -0.114,-0.183 -0.108,-0.158 -0.005,-0.14 0.049,-0.018 0.073,-0.056 0.155,-0.155 0.031,-0.082 -0.008,-0.124 -0.217,-0.392 -0.031,-0.255 -0.031,-0.475 0.046,-0.112 0.079,-0.055 0.379,-0.059 -0.005,-0.371 0.023,-0.112 0.076,-0.154 0.048,-0.141 0.211,-0.203 0.286,-0.241 0.125,-0.008 0.109,0.034 0.124,0.208 0.135,-0.027 0.028,-0.25 -0.177,-0.327 -0.094,-0.209 0.029,-0.116 0.066,-0.061 0.153,0.038 0.145,0.058 0.091,-0.039 0.145,-0.03 z"
       fill="#cccccc"
       stroke="#ffffff"
       stroke-width="0.5"
       id="path3537" />
  </g>
</svg>
