<?xml version="1.0" encoding="UTF-8" standalone="no"?>
<svg
   width="15.106108"
   height="15.653779"
   viewBox="0 0 15.106108 15.653779"
   fill="none"
   version="1.1"
   id="svg520"
   xmlns="http://www.w3.org/2000/svg"
   xmlns:svg="http://www.w3.org/2000/svg">
  <defs
     id="defs524" />
  <g
     id="New_Layer_1653409134.6982706"
     style="display:inline"
     transform="translate(-943.47629,-432.08211)">
    <path
       d="m 944.075,432.378 -0.073,0.02 -0.055,-0.02 0.04,-0.037 0.082,-0.006 0.031,0.01 z m 5.445,10.861 -0.041,0.043 -0.271,-0.026 -0.124,-0.054 0.012,-0.041 0.214,0.039 z m 6.375,0.48 0.352,0.144 0.468,-0.067 -0.075,0.043 -0.175,0.04 -0.116,0.035 h -0.078 l -0.093,-0.014 -0.3,-0.1 -0.168,-0.132 0.041,-0.044 z m 1.334,0.253 0.104,0.061 0.207,-0.004 0.191,0.155 -0.073,-0.01 -0.104,-0.066 -0.095,-0.028 -0.128,0.008 -0.06,-0.025 z m -5.451,3.418 -0.056,0.084 -0.069,-0.006 0.061,-0.063 0.042,-0.088 0.067,-0.25 0.139,-0.089 0.096,-0.104 -0.023,0.108 -0.15,0.113 z"
       fill="#cccccc"
       stroke="#ffffff"
       stroke-width="0.5"
       id="path8387" />
  </g>
</svg>
