<?xml version="1.0" encoding="UTF-8" standalone="no"?>
<svg
   width="2.7903256"
   height="14.22544"
   viewBox="0 0 2.7903256 14.22544"
   fill="none"
   version="1.1"
   id="svg520"
   xmlns="http://www.w3.org/2000/svg"
   xmlns:svg="http://www.w3.org/2000/svg">
  <defs
     id="defs524" />
  <g
     id="New_Layer_1653409134.700239"
     style="display:inline"
     transform="translate(-882.7784,-409.97568)">
    <path
       d="m 884.629,410.393 -0.086,0.11 -0.071,-0.081 -0.02,-0.16 0.125,0.015 0.046,0.033 z m 0.193,2.01 -0.136,0.064 0.169,-0.289 0.051,-0.05 0.079,0.105 z m -0.183,5.08 -0.062,0.02 -0.089,-0.01 -0.063,-0.046 -0.014,-0.077 0.181,-0.004 0.067,0.058 z m 0.112,3.495 -0.008,0.075 -0.144,-0.018 -0.039,-0.034 0.081,-0.261 0.206,-0.12 0.1,-0.024 -0.094,0.124 -0.018,0.139 z m -0.252,0.47 -0.116,0.147 -0.082,-0.229 -0.014,-0.092 0.106,-0.084 0.063,10e-4 z m -1.115,2.341 -0.14,0.134 -0.1,-0.027 -0.063,-0.046 -0.015,-0.077 0.226,-0.074 0.092,0.026 z"
       fill="#cccccc"
       stroke="#ffffff"
       stroke-width="0.5"
       id="path4916" />
  </g>
</svg>
