<?xml version="1.0" encoding="UTF-8" standalone="no"?>
<svg
   width="3.5853853"
   height="2.8140285"
   viewBox="0 0 3.5853853 2.8140285"
   fill="none"
   version="1.1"
   id="svg520"
   xmlns="http://www.w3.org/2000/svg"
   xmlns:svg="http://www.w3.org/2000/svg">
  <defs
     id="defs524" />
  <g
     id="New_Layer_1653409134.654088"
     style="display:inline"
     transform="translate(-530.22163,-250.22243)">
    <path
       d="m 531.799,250.859 0.086,0.001 0.039,-0.048 0.151,0.034 0.226,0.219 0.045,0.119 0.156,0.061 0.054,0.123 -0.181,0.382 -0.11,0.007 -0.083,-0.048 -0.148,0.042 -0.086,0.072 -0.029,0.159 0.005,0.332 -0.656,0.066 -0.151,-0.097 -0.208,-0.755 0.043,-0.196 0.139,-0.083 0.119,-0.018 0.018,0.408 0.175,-0.041 0.055,-0.269 0.011,-0.189 -0.047,-0.096 -0.118,-0.074 -0.07,-0.127 0.099,-0.205 0.184,-0.089 0.157,0.274 z m -0.919,0.927 0.016,0.126 -0.107,-0.032 -0.083,0.043 -0.056,0.155 -0.122,-0.056 -0.049,-0.223 0.091,-0.334 0.216,-0.013 z m 2.664,0.823 -0.021,0.133 -0.229,0.029 -0.096,-0.118 -0.214,0.015 -0.037,-0.059 0.089,-0.118 0.17,-0.074 0.221,0.03 z"
       fill="#cccccc"
       stroke="#ffffff"
       stroke-width="0.5"
       id="path7404" />
  </g>
</svg>
