<?xml version="1.0" encoding="UTF-8" standalone="no"?>
<svg
   width="30.322313"
   height="49.11974"
   viewBox="0 0 30.322313 49.11974"
   fill="none"
   version="1.1"
   id="svg520"
   xmlns="http://www.w3.org/2000/svg"
   xmlns:svg="http://www.w3.org/2000/svg">
  <defs
     id="defs524" />
  <g
     id="New_Layer_1653409134.7035196"
     style="display:inline"
     transform="translate(-560.26693,-492.62491)">
    <path
       d="m 567.994,541.456 -0.309,0.005 -0.526,0.015 -0.313,0.009 -0.349,0.009 -0.432,-0.088 -0.242,0.019 -0.021,-0.999 -0.078,-0.219 -0.083,-0.32 -0.021,-0.205 0.052,-0.206 0.026,-0.326 -0.024,-0.286 -0.257,-0.143 -0.058,-0.045 -0.055,-0.224 -0.023,-0.346 0.182,-0.439 -0.015,-0.843 0.021,-0.296 -0.003,-0.585 -0.005,-0.707 -0.003,-0.633 0.008,-0.545 -0.055,-0.258 -0.044,-0.142 -0.12,-0.288 -0.14,-0.599 -0.165,-0.452 -0.213,-0.298 -0.066,-0.157 -0.069,-0.209 -0.201,-0.37 -0.164,-0.215 -0.044,-0.172 0.005,-0.445 -0.182,-0.797 -0.133,-0.58 -0.201,-0.628 -0.133,-0.419 -0.02,-0.072 -0.016,-0.159 0.399,-0.311 0.398,-0.438 0.466,-0.512 0.416,-0.457 0.365,-0.401 0.502,-0.548 0.495,-0.541 0.115,-0.069 0.05,-0.044 -0.214,-0.48 0.344,-0.557 0.018,-0.362 -0.015,-0.346 0.043,-0.159 0.104,-0.139 0.402,-0.289 0.304,-0.46 0.248,-0.43 0.347,-0.69 0.034,-0.163 0.005,-0.167 -0.094,-0.235 -0.23,-0.377 -0.167,-0.326 -0.15,-0.501 0.151,-0.435 0.052,-0.263 v -0.142 l -0.065,-0.134 -0.169,-0.102 -0.139,-0.066 -0.047,-0.18 -0.002,-0.213 0.063,-0.118 0.372,-0.191 0.085,-0.104 0.043,-0.116 0.005,-0.165 0.115,-0.413 0.142,-0.392 0.01,-0.138 -0.051,-0.121 -0.039,-0.221 -0.024,-0.333 -0.002,-0.931 0.073,-0.959 -0.032,-0.543 -0.239,-0.624 -0.023,-0.45 0.174,-0.314 0.028,-0.185 -0.127,-0.024 -0.26,-0.019 -0.191,-0.058 -0.297,-0.257 -0.516,-0.214 -0.587,-0.195 -0.852,-0.058 -0.708,-0.624 -0.555,-0.1 -0.178,-0.08 -0.533,-0.374 -0.836,-0.035 -0.865,-0.037 -0.541,-0.011 -0.079,-0.05 -0.031,-0.515 -0.007,-0.457 -0.045,-0.397 -0.083,-0.452 -0.125,-0.176 -0.151,-0.305 -0.075,-0.336 -0.009,-0.163 0.027,-0.058 0.601,-0.239 0.258,-0.118 0.38,-0.137 0.679,-0.189 0.605,-0.169 0.555,-0.164 0.588,-0.174 0.239,-0.117 0.297,-0.117 0.711,-0.235 0.203,-0.081 0.407,-0.131 0.206,-0.051 0.786,-0.269 0.903,-0.308 0.316,-0.108 0.602,-0.206 0.117,0.085 0.411,0.708 0.323,0.417 0.369,0.386 0.061,-0.019 0.107,-0.09 0.184,-0.037 0.584,-0.087 0.224,-0.005 0.146,-0.104 0.301,-0.073 0.347,-0.044 0.119,0.047 0.366,0.5 0.052,0.382 0.077,0.553 0.018,0.27 -0.007,0.361 -0.04,0.452 -0.298,0.521 -0.056,0.259 -0.159,0.401 -0.21,0.198 -0.104,0.162 0.005,0.168 0.112,0.141 0.247,0.254 0.076,0.165 -0.023,0.146 0.002,0.199 0.059,0.138 0.069,0.08 0.244,0.13 0.238,0.327 0.41,0.395 0.49,0.563 0.23,0.173 0.181,0.042 0.09,0.188 -0.05,0.22 -0.141,0.125 0.058,0.18 0.08,0.094 0.089,0.048 0.214,0.011 0.2,-0.037 0.05,-0.063 -0.026,-0.843 -0.143,-0.491 -0.145,-0.192 -0.031,-0.038 0.051,-0.161 0.161,-0.376 0.137,-0.373 0.087,-0.157 0.101,-0.095 0.675,-0.101 0.309,-0.087 0.13,-0.109 0.1,-0.289 0.081,-0.807 0.03,-0.757 -0.07,-0.443 0.097,-0.667 0.148,-0.413 -0.073,-0.081 -0.055,-0.556 -0.44,-0.592 -0.567,-0.761 -0.316,-0.409 -0.361,-0.465 -0.656,-0.728 -0.3,-0.263 -0.157,-0.103 -0.53,-0.084 -0.141,-0.14 -0.135,-0.223 -0.05,-0.412 -0.01,-0.308 -0.06,-0.524 -0.107,-0.74 -0.047,-0.218 -0.151,-0.556 -0.144,-0.529 -0.008,-0.131 0.051,-0.127 0.244,-0.389 0.172,-0.276 0.083,-0.151 0.147,-0.41 0.035,-0.199 0.115,-0.09 0.469,-0.037 0.373,0.007 0.625,-0.009 0.661,0.024 0.094,0.018 0.148,0.043 0.169,-0.007 0.187,-0.058 0.207,-0.142 0.226,-0.226 0.355,0.005 0.479,0.235 0.262,0.205 0.044,0.175 0.321,0.102 0.597,0.028 0.436,-0.091 0.272,-0.21 0.287,-0.111 0.298,-0.013 0.225,0.072 0.153,0.156 0.292,0.112 0.435,0.068 0.474,-0.101 0.513,-0.269 0.294,-0.281 0.071,-0.292 0.086,-0.178 0.098,-0.063 0.271,-0.036 0.448,-0.01 0.388,0.092 0.497,0.291 0.313,-0.193 0.537,-0.331 0.541,-0.175 0.515,-10e-4 0.423,-0.126 0.33,-0.25 0.349,-0.159 0.368,-0.067 0.344,-0.121 0.481,-0.26 0.499,-0.378 0.508,-0.386 0.326,-0.248 0.149,0.292 0.267,0.267 -0.16,0.155 -0.191,0.139 0.31,0.186 -0.227,0.281 -0.028,0.195 0.058,0.077 0.049,0.114 -0.148,0.322 -0.198,0.247 -0.052,0.189 0.176,0.333 -0.09,0.592 0.169,0.533 0.047,0.273 0.059,0.183 -0.085,0.327 0.023,0.552 0.039,0.228 -0.101,0.284 0.172,0.098 0.091,0.312 -0.024,0.351 -0.053,0.189 -0.296,0.229 -0.036,0.089 0.005,0.135 0.37,0.004 0.013,0.209 -0.024,0.165 0.013,0.31 -0.049,0.201 0.086,0.23 -0.104,0.255 0.036,0.197 0.005,0.255 0.086,0.645 0.015,0.798 0.019,0.128 0.132,0.09 0.185,0.045 -0.007,0.219 -0.206,0.286 -0.013,0.178 0.031,0.25 0.226,-0.34 0.136,10e-4 0.12,0.133 -0.016,0.196 0.042,0.097 -0.018,0.19 0.067,0.241 -0.026,0.21 -0.166,0.147 -0.211,0.252 -0.039,0.236 0.021,0.155 -0.146,0.049 -0.068,0.096 0.099,0.223 -0.006,0.197 -0.259,0.614 -0.688,0.841 -0.297,0.299 -0.278,0.325 v 0.134 l -0.026,0.116 -0.324,0.465 -0.348,0.076 -0.193,0.125 0.151,0.41 -0.225,0.095 -0.392,0.323 -1.074,0.621 -0.171,0.144 -0.273,0.381 -0.36,0.092 -0.2,0.108 -0.357,0.039 -0.125,-0.027 -0.122,0.014 -0.102,0.082 -0.709,0.268 -0.663,0.212 -0.162,0.097 -0.109,0.132 -0.586,0.21 -0.917,0.519 -0.752,0.496 -0.543,0.496 -0.145,0.075 -0.167,0.172 -0.057,0.254 -0.055,0.144 -0.403,0.524 -0.607,0.62 -0.117,0.169 -0.242,0.345 -0.022,0.226 -0.215,0.069 -0.18,-0.216 -0.078,0.417 -0.146,0.03 -0.164,-0.086 -0.406,0.207 -0.354,0.239 -0.568,0.503 -0.803,0.976 -1.171,0.944 -0.16,0.027 -0.108,-0.004 -0.37,-0.329 -0.2,-0.024 0.179,0.195 0.12,0.163 -0.031,0.319 0.015,0.479 -0.145,0.933 0.02,0.204 0.167,0.265 0.315,0.324 0.294,0.404 0.381,1.162 0.028,0.6 0.393,0.767 0.015,0.333 0.159,0.829 -0.012,0.672 -0.027,0.412 0.188,0.174 0.071,-0.157 -0.021,-0.261 0.051,-0.418 0.105,-0.186 0.104,0.026 0.032,0.197 0.07,0.175 0.03,0.164 0.004,0.223 -0.144,0.849 0.042,0.346 0.195,0.579 -0.227,0.673 -0.33,1.59 -0.019,0.276 0.079,0.12 0.177,0.041 0.065,-0.204 0.104,0.002 0.055,0.12 -0.146,0.736 -0.146,0.323 -0.515,0.793 -0.276,0.34 -0.461,0.335 -1.079,0.524 -2.166,0.759 -0.857,0.373 -0.513,0.223 -1.084,0.709 -0.474,0.476 -0.195,0.547 -0.187,0.25 -0.185,0.318 0.161,0.273 0.157,0.207 0.185,0.139 0.096,0.12 0.127,0.083 0.126,-0.43 0.062,-0.134 0.109,-0.01 -0.06,0.524 -0.125,1.804 z m 5.144,-43.767 0.076,-0.063 0.028,-0.083 v -0.081 l -0.047,-0.05 -0.068,-0.029 -0.098,0.017 -0.035,0.11 -0.015,0.152 0.062,0.051 z m -0.217,-0.276 -0.049,-0.083 -0.092,-0.039 -0.106,0.032 -0.034,0.104 0.109,0.134 0.116,0.002 z"
       fill="#cccccc"
       stroke="#ffffff"
       stroke-width="0.5"
       id="path3358" />
  </g>
</svg>
