<?xml version="1.0" encoding="UTF-8" standalone="no"?>
<svg
   width="11.345335"
   height="13.641405"
   viewBox="0 0 11.345335 13.641405"
   fill="none"
   version="1.1"
   id="svg520"
   xmlns="http://www.w3.org/2000/svg"
   xmlns:svg="http://www.w3.org/2000/svg">
  <defs
     id="defs524" />
  <g
     id="New_Layer_1653409134.7058237"
     style="display:inline"
     transform="translate(-484.81228,-285.301)">
    <path
       d="m 490.385,286.717 -0.119,-0.065 0.631,-0.187 0.399,-0.057 0.071,0.025 -0.721,0.246 z m 1.401,-0.304 0.554,-0.077 -0.003,-0.029 -0.146,-0.047 -0.472,0.008 -0.151,0.033 0.031,0.055 z m 1.688,-0.321 -0.119,-0.02 -0.346,0.1 -0.025,0.046 0.097,0.034 z m -3.438,0.952 -0.228,-0.01 -0.334,0.299 0.044,0.055 z m 4.75,-1.493 h -0.13 l -0.241,0.094 -0.075,0.125 0.26,-0.016 z m -7.829,10.259 -0.358,0.186 -0.468,-0.065 -0.356,-0.136 -0.459,0.026 -0.212,0.071 0.084,0.388 0.064,0.123 0.083,0.08 0.11,0.016 0.127,-0.096 0.177,-0.101 0.285,0.047 0.207,0.093 0.074,0.097 0.137,0.092 0.2,0.022 0.387,-0.176 0.372,-0.269 0.109,-0.187 0.041,-0.169 -0.322,0.116 z m 8.941,-8.645 -0.39,-0.085 -0.252,-0.125 -0.157,-0.226 -0.27,-0.309 -0.709,0.032 -0.59,0.089 -0.817,0.038 -0.529,0.15 -0.958,0.5 -0.242,0.255 -0.245,0.549 -0.834,0.632 -0.486,0.243 -0.137,-0.093 -0.197,-0.061 -0.157,0.321 -0.097,0.289 -0.326,1.693 -0.222,0.612 -0.299,0.514 -0.47,0.628 -0.216,0.214 -0.133,0.081 -0.164,0.302 -0.133,0.362 -0.089,0.169 0.527,0.622 0.066,0.178 0.069,0.104 -0.5,0.065 0.213,0.201 0.267,0.144 0.179,0.069 0.098,0.145 -0.192,0.067 -0.181,0.004 -0.716,-0.533 -0.398,-0.098 -0.548,0.031 -0.138,0.056 -0.142,0.162 0.201,0.246 0.186,0.145 0.299,0.019 0.359,0.182 0.519,-0.152 0.372,0.187 0.245,0.067 0.22,0.112 0.194,0.024 0.084,-0.05 -0.053,-0.271 0.158,-0.145 0.175,-0.067 0.079,0.118 0.161,0.12 0.126,0.001 0.341,-0.312 0.081,0.062 0.074,0.111 0.016,0.089 0.013,0.094 0.077,0.039 0.269,-0.02 0.137,-0.169 0.107,-0.106 0.08,0.072 0.038,0.208 0.075,0.271 0.321,0.302 0.271,0.086 0.333,-0.059 0.132,-0.054 0.088,0.045 0.09,0.16 0.192,0.183 0.403,0.129 0.124,0.073 0.086,0.123 -0.025,0.175 -0.192,0.435 -0.025,0.128 0.026,0.043 -0.038,0.08 -0.25,0.291 -0.022,0.103 0.083,0.167 0.069,0.138 0.15,0.067 0.141,0.022 0.267,0.009 0.285,0.009 0.153,-0.685 -0.117,-0.2 -0.146,-0.102 -0.168,-0.05 -0.078,-0.095 -0.027,-0.109 0.03,-0.067 0.199,0.02 0.062,-0.071 0.474,-0.404 0.02,-0.078 -0.066,-0.044 -0.086,-0.023 -0.022,-0.085 0.003,-0.112 0.253,-0.585 0.075,-0.25 0.017,-0.177 -0.016,-0.175 -0.146,-0.275 -0.141,-0.22 -0.005,-0.175 -0.103,-0.092 -0.292,-0.471 v -0.182 l 0.164,-0.142 0.232,-0.09 0.077,-0.075 0.138,-0.047 0.367,0.136 0.164,0.118 0.046,-0.024 0.148,-0.128 0.259,0.02 0.629,-0.258 0.095,-0.124 0.069,-0.132 0.007,-0.058 -0.244,-0.255 -0.007,-0.094 0.032,-0.106 0.069,-0.084 0.143,-0.057 0.154,-0.112 0.343,-0.318 0.119,-0.276 0.037,-0.3 0.007,-0.224 -0.094,-0.178 -0.095,-0.115 -0.129,0.018 -0.251,-0.009 -0.235,-0.1 -0.129,-0.162 -0.033,-0.142 0.06,-0.09 0.018,-0.11 -0.038,-0.111 0.015,-0.093 0.106,-0.075 0.743,0.002 0.056,-0.082 0.05,-0.432 0.186,-0.659 0.175,-0.368 0.029,-0.155 -0.003,-0.875 z m -9.725,7.374 0.245,-0.071 0.371,0.302 0.348,-0.098 -0.021,-0.084 -0.059,-0.079 -0.274,-0.247 -0.449,-0.031 -0.255,0.076 0.002,0.089 z m 2.962,-6.056 0.278,-0.33 v -0.525 l -0.411,0.429 -0.087,0.258 0.05,0.077 z"
       fill="#cccccc"
       stroke="#ffffff"
       stroke-width="0.5"
       id="path5617" />
  </g>
</svg>
