<?xml version="1.0" encoding="UTF-8" standalone="no"?>
<svg
   width="43.329361"
   height="35.89563"
   viewBox="0 0 43.329361 35.89563"
   fill="none"
   version="1.1"
   id="svg520"
   xmlns="http://www.w3.org/2000/svg"
   xmlns:svg="http://www.w3.org/2000/svg">
  <defs
     id="defs524" />
  <g
     id="New_Layer_1653409134.7088368"
     style="display:inline"
     transform="translate(-50.227327,-487.98613)">
    <path
       d="m 82.5874,488.612 -0.275,0.066 -0.131,-0.012 -0.099,-0.23 0.036,-0.142 0.044,-0.045 0.468,0.056 0.04,0.104 -0.007,0.099 z m 1.45,0.084 -0.182,0.022 -0.03,-0.14 0.056,-0.074 0.078,-0.035 0.139,0.043 0.073,0.061 -0.004,0.052 z m -1.458,1.372 -0.061,0.052 -0.114,-0.169 -0.018,-0.071 0.206,-0.088 0.112,0.046 z m 2.951,0.761 0.42,0.147 0.132,-0.016 -0.134,0.145 -0.419,0.079 -0.139,0.07 -0.169,-0.045 -0.091,-0.168 z m -0.1,0.669 -0.208,0.221 v -0.235 l 0.075,-0.031 h 0.068 z m 1.147,1.654 -0.103,0.048 -0.007,-0.303 0.133,0.058 0.052,0.049 -0.022,0.083 z m -17.962,15.303 -0.018,0.131 -0.053,-0.126 -0.173,-0.202 -0.064,-0.09 0.077,0.014 z m 7.127,0.697 -0.05,0.031 0.064,-0.23 0.072,-0.029 z m -8.349,0.678 0.013,0.05 -0.058,-0.003 -0.104,-0.147 -0.037,-0.127 -0.066,-0.145 -0.091,-0.105 -0.01,-0.097 -0.003,-0.153 0.103,0.234 0.098,0.188 0.071,0.154 z m -16.783,0.954 -0.051,0.022 -0.054,-0.053 -0.023,-0.081 0.019,-0.131 0.136,0.086 0.054,0.058 z m 22.159,-0.067 -0.111,0.017 -0.271,-0.173 h 0.104 l 0.155,0.108 z m 0.366,-0.043 0.153,0.143 -0.203,-0.098 -0.258,-0.042 0.098,-0.026 0.143,0.004 z m -22.365,0.751 -0.111,0.004 -0.101,-0.045 0.025,-0.3 0.027,-0.062 0.156,0.101 0.131,0.262 z m 4.48,1.949 -0.088,0.076 -0.117,-0.054 -0.052,-0.073 -0.019,-0.078 0.027,-0.093 0.262,0.013 0.074,0.041 z m 1.38,0.424 0.404,0.136 0.075,0.221 -0.086,0.147 -0.204,-0.036 -0.101,-0.081 -0.142,-0.264 -0.395,0.06 -0.273,-0.052 -0.151,-0.344 -0.006,-0.156 0.066,-0.095 0.29,-0.104 0.362,0.076 0.138,0.195 z m 23.89,0.488 0.014,0.056 -0.102,-0.007 -0.03,-0.019 0.002,-0.104 0.074,-0.126 0.058,-0.106 0.118,-0.099 0.211,-0.099 0.102,-0.042 0.033,0.023 -0.039,0.015 -0.349,0.208 -0.109,0.146 -0.048,0.102 0.009,0.032 z m -0.058,0.976 0.02,0.081 -0.105,-0.054 -0.099,-0.149 -0.177,-0.185 -0.042,-0.076 0.136,0.072 0.089,0.108 z m 10.828,0.449 10e-4,0.055 -0.27,-0.281 0.106,0.022 z m -10.422,0.111 0.038,0.107 -0.068,-0.05 -0.217,-0.104 -0.024,-0.087 z m 12.324,0.484 -0.057,0.064 -0.005,-0.062 -0.079,-0.03 -0.109,-0.063 -0.148,-0.072 -0.08,-0.012 -0.04,-0.042 0.056,-0.022 0.091,0.033 0.128,0.066 0.148,0.066 z m -6.207,6.854 -0.082,0.056 0.03,-0.076 -0.063,-0.166 -0.062,-0.024 0.062,-0.047 0.088,0.125 z"
       fill="#cccccc"
       stroke="#ffffff"
       stroke-width="0.5"
       id="path2181" />
  </g>
</svg>
