<?xml version="1.0" encoding="UTF-8" standalone="no"?>
<svg
   width="8.0994053"
   height="2.1913879"
   viewBox="0 0 8.0994053 2.1913879"
   fill="none"
   version="1.1"
   id="svg520"
   xmlns="http://www.w3.org/2000/svg"
   xmlns:svg="http://www.w3.org/2000/svg">
  <defs
     id="defs524" />
  <g
     id="New_Layer_1653409134.7111645"
     style="display:inline"
     transform="translate(-284.7613,-410.84881)">
    <path
       d="m 290.108,411.328 0.086,0.058 0.084,-0.008 -0.068,-0.121 h 0.063 l 0.538,0.074 0.346,0.125 0.356,0.059 0.022,0.409 -0.274,0.164 -0.179,0.17 -0.146,0.209 -0.384,0.243 -0.462,0.073 -0.308,0.007 -0.115,-0.008 -0.112,-0.042 -0.232,0.04 -0.287,-0.107 -0.246,0.027 -0.488,-0.025 -0.183,0.092 -0.175,0.021 -0.171,-0.017 -0.146,-0.042 -0.362,0.003 -0.153,-0.081 0.063,-0.465 0.005,-0.21 -0.089,-0.174 -0.098,-0.109 -0.07,-0.129 0.142,-0.085 0.117,-0.124 0.037,-0.187 0.128,-0.046 0.15,-0.021 0.692,0.087 1.752,0.049 0.1,0.015 z m 1.975,0.996 -0.22,0.018 -0.143,-0.024 -0.048,-0.087 0.267,-0.082 0.311,0.012 0.178,0.049 0.022,0.033 z m -6.867,0.134 -0.026,0.003 -0.026,-0.003 -0.012,-0.008 -0.018,-0.027 -0.08,-0.044 -0.019,-0.041 0.018,-0.042 0.033,-0.017 0.162,-0.004 0.017,0.004 0.032,0.03 10e-4,0.021 -0.016,0.021 -0.029,0.051 -0.012,0.013 -0.009,0.013 -0.004,0.023 z"
       fill="#cccccc"
       stroke="#ffffff"
       stroke-width="0.5"
       id="path5612" />
  </g>
</svg>
