<?xml version="1.0" encoding="UTF-8" standalone="no"?>
<svg
   width="4.403399"
   height="5.0784817"
   viewBox="0 0 4.403399 5.0784817"
   fill="none"
   version="1.1"
   id="svg520"
   xmlns="http://www.w3.org/2000/svg"
   xmlns:svg="http://www.w3.org/2000/svg">
  <defs
     id="defs524" />
  <g
     id="New_Layer_1653409134.7114835"
     style="display:inline"
     transform="translate(-571.38085,-367.33398)">
    <path
       d="m 572.098,371.684 -0.289,0.276 -0.092,-0.274 -0.041,-0.099 0.531,-0.527 0.253,-0.332 0.131,0.142 0.004,0.053 -0.492,0.533 z m 3.32,-2.27 0.077,0.722 -0.167,0.306 -0.095,0.361 -0.042,0.272 -0.117,-0.012 -0.371,0.197 -0.493,0.186 -0.542,0.048 -0.077,-0.055 -0.022,-0.094 0.159,-0.458 0.061,-0.215 0.235,-0.232 0.333,-0.201 0.141,-0.051 -0.016,-0.086 -0.199,-0.133 -0.208,-0.069 -0.197,0.069 -0.062,-0.021 -0.021,-0.059 0.069,-0.083 0.032,-0.154 -0.031,-0.258 -0.021,-0.314 -0.043,-0.244 0.123,-0.396 0.031,-0.189 0.153,-0.404 0.359,-0.245 0.311,0.071 0.164,0.018 0.069,0.048 0.045,0.14 0.229,0.162 0.188,0.021 0.058,0.521 -0.105,0.445 z"
       fill="#cccccc"
       stroke="#ffffff"
       stroke-width="0.5"
       id="path8252" />
  </g>
</svg>
