<?xml version="1.0" encoding="UTF-8" standalone="no"?>
<svg
   width="6.1842232"
   height="5.370748"
   viewBox="0 0 6.1842232 5.370748"
   fill="none"
   version="1.1"
   id="svg520"
   xmlns="http://www.w3.org/2000/svg"
   xmlns:svg="http://www.w3.org/2000/svg">
  <defs
     id="defs524" />
  <g
     id="New_Layer_1653409134.7145593"
     style="display:inline"
     transform="translate(-556.42247,-466.38249)">
    <path
       d="m 561.325,466.646 -0.093,0.043 -0.018,0.135 0.106,0.215 0.348,0.444 0.22,0.081 0.145,0.173 0.141,0.291 0.042,0.365 -0.058,0.438 0.035,0.325 0.127,0.214 0.034,0.277 -0.06,0.34 -0.075,0.204 -0.086,0.068 -0.099,0.025 -0.134,-0.023 -0.163,0.029 -0.177,0.064 -0.112,0.009 -0.07,-0.012 -0.131,-0.055 -0.206,-0.176 -0.386,0.097 -0.106,-0.002 -0.14,0.084 -0.116,0.103 -0.069,0.007 -0.073,-0.014 -0.331,-0.207 -0.122,0.006 -0.05,0.583 -0.055,0.325 -0.07,0.144 -0.237,0.139 -0.239,0.079 -0.131,-0.005 -0.528,0.043 -0.206,10e-4 -0.114,-0.047 -0.147,-0.331 -0.279,-0.147 -0.268,-0.069 -0.109,0.019 -0.097,0.173 -0.04,0.155 -0.261,-0.106 -0.078,-0.131 -0.006,-0.222 -0.095,-0.304 0.053,-0.129 0.102,-0.084 0.216,-0.16 0.328,-0.223 0.069,-0.105 0.047,-0.177 -0.021,-0.411 -0.031,-0.347 0.039,-0.123 0.15,-0.268 0.2,-0.275 0.235,-0.29 0.141,-0.028 0.185,-0.109 0.195,-0.163 0.11,-0.061 0.093,-0.002 0.605,-0.144 0.06,0.045 0.098,0.279 0.052,0.041 0.084,0.01 0.169,-0.064 0.312,-0.219 0.136,-0.132 0.159,-0.187 0.206,-0.21 0.114,-0.184 0.111,-0.107 0.146,-0.032 0.162,0.009 z"
       fill="#cccccc"
       stroke="#ffffff"
       stroke-width="0.5"
       id="path3263" />
  </g>
</svg>
