<?xml version="1.0" encoding="UTF-8" standalone="no"?>
<svg
   width="4.2266269"
   height="5.393456"
   viewBox="0 0 4.2266269 5.393456"
   fill="none"
   version="1.1"
   id="svg520"
   xmlns="http://www.w3.org/2000/svg"
   xmlns:svg="http://www.w3.org/2000/svg">
  <defs
     id="defs524" />
  <g
     id="New_Layer_1653409134.7229688"
     style="display:inline"
     transform="translate(-561.85397,-537.7567)">
    <path
       d="m 565.362,538.677 0.056,0.045 0.259,0.143 0.023,0.286 -0.026,0.326 -0.052,0.206 0.021,0.205 0.083,0.32 0.079,0.219 0.018,0.998 -0.087,-0.046 -0.159,-0.043 -0.085,0.02 -0.078,0.449 -0.06,0.667 0.037,0.415 -0.607,0.013 -0.766,-0.045 -0.549,-0.18 -0.591,-0.395 -0.352,-0.616 -0.154,-0.386 -0.214,-0.022 -0.036,-0.066 -0.018,-0.471 0.003,-0.493 0.041,-0.131 0.399,-0.607 0.247,-0.376 0.154,-0.363 0.335,-0.427 0.358,-0.272 0.132,-0.039 0.093,0.011 0.631,0.374 0.649,0.355 0.142,-0.04 z"
       fill="#cccccc"
       stroke="#ffffff"
       stroke-width="0.5"
       id="path3646" />
  </g>
</svg>
