<?xml version="1.0" encoding="UTF-8" standalone="no"?>
<svg
   width="9.8728628"
   height="4.7422695"
   viewBox="0 0 9.8728628 4.7422695"
   fill="none"
   version="1.1"
   id="svg520"
   xmlns="http://www.w3.org/2000/svg"
   xmlns:svg="http://www.w3.org/2000/svg">
  <defs
     id="defs524" />
  <g
     id="New_Layer_1653409134.7255712"
     style="display:inline"
     transform="translate(-823.47508,-485.99775)">
    <path
       d="m 828.324,486.44 -0.188,0.484 -0.203,-0.103 0.216,-0.272 0.104,-0.081 z m -1.623,3.871 -0.097,-0.368 -0.103,-0.158 -0.08,-0.09 -0.027,-0.112 0.004,-0.115 0.049,-0.053 0.346,-0.015 0.137,-0.189 -10e-4,-0.227 -0.069,-0.077 -0.067,-0.032 -0.356,0.17 -0.103,-0.031 -0.061,-0.062 0.02,-0.251 0.294,-0.235 0.249,-0.426 0.175,-0.17 0.407,-0.159 0.165,-0.045 1.186,-0.235 0.283,-0.016 0.751,0.007 1.006,-0.051 0.248,-0.032 0.322,-0.104 0.313,-0.128 0.165,-0.101 0.174,-0.073 0.259,0.092 0.438,0.069 0.118,0.061 0.109,0.084 -0.509,0.448 -0.56,0.372 -0.345,0.112 -0.356,0.076 -0.272,0.144 -0.229,0.225 -0.293,0.126 -0.33,0.043 -0.283,0.067 -0.256,0.132 -0.355,0.227 -0.145,0.023 -0.152,-0.005 -0.295,0.087 -0.919,0.324 -0.555,0.361 z m -2.895,-0.481 0.454,-0.241 0.691,-0.186 -0.018,0.136 -0.07,0.214 -0.104,0.101 -0.158,0.181 -0.104,0.04 -0.414,-0.04 -0.054,0.026 -0.071,-0.019 -0.105,-0.116 z"
       fill="#cccccc"
       stroke="#ffffff"
       stroke-width="0.5"
       id="path5256" />
  </g>
</svg>
