<?xml version="1.0" encoding="UTF-8" standalone="no"?>
<svg
   width="4.7208152"
   height="9.6140118"
   viewBox="0 0 4.7208152 9.6140118"
   fill="none"
   version="1.1"
   id="svg520"
   xmlns="http://www.w3.org/2000/svg"
   xmlns:svg="http://www.w3.org/2000/svg">
  <defs
     id="defs524" />
  <g
     id="New_Layer_1653409134.7265618"
     style="display:inline"
     transform="translate(-993.47219,-516.10659)">
    <path
       d="m 997.837,516.585 -0.106,0.174 -0.051,-0.002 -0.123,-0.101 -0.045,-0.068 0.188,-0.205 0.097,-0.016 0.13,0.069 -0.006,0.058 z m -3.392,7.508 h 0.04 l 0.044,-0.088 0.151,-0.032 -0.017,0.095 -0.204,0.308 -0.128,-0.12 -0.374,-0.197 -0.075,-0.152 0.124,-0.115 -0.013,0.093 0.063,0.042 0.211,0.016 0.188,0.083 -0.117,0.027 z m 0.699,0.392 -0.016,0.45 -0.137,-0.206 -0.016,-0.096 0.139,-0.139 z"
       fill="#cccccc"
       stroke="#ffffff"
       stroke-width="0.5"
       id="path1253" />
  </g>
</svg>
