<?xml version="1.0" encoding="UTF-8" standalone="no"?>
<svg
   width="10.805957"
   height="10.786275"
   viewBox="0 0 10.805957 10.786275"
   fill="none"
   version="1.1"
   id="svg520"
   xmlns="http://www.w3.org/2000/svg"
   xmlns:svg="http://www.w3.org/2000/svg">
  <defs
     id="defs524" />
  <g
     id="New_Layer_1653409134.7278666"
     style="display:inline"
     transform="translate(-807.36353,-390.52174)">
    <path
       d="m 815.31,398.884 -0.174,0.354 -0.14,0.374 -0.056,0.353 0.003,0.363 -0.04,0.328 -0.068,0.324 -0.272,-0.093 -0.147,-0.232 -0.034,-0.381 -0.197,-0.46 -0.074,-0.132 -0.285,-0.258 -0.259,-0.128 -0.2,-0.191 0.026,0.016 -0.148,-0.257 -0.112,-0.273 -0.231,-0.778 -0.08,-0.188 -0.107,-0.172 -0.03,-0.17 0.036,-0.189 0.101,-0.283 0.061,-0.285 -0.049,-0.388 0.019,-0.384 0.075,-0.171 1.321,-2.352 0.358,-0.503 0.221,-0.247 0.185,-0.279 0.175,-0.353 0.215,-0.323 0.153,-0.1 0.759,-0.29 0.235,-0.277 0.189,-0.086 0.215,0.005 0.139,0.132 0.124,0.157 0.13,0.084 0.335,0.153 0.147,0.148 0.066,0.254 -0.204,0.242 -0.102,0.218 -0.019,0.24 0.036,0.325 0.005,0.326 -0.256,0.763 -0.273,0.475 -0.074,0.236 -0.083,0.586 -0.161,0.587 -0.137,0.743 -0.224,0.765 -0.127,0.319 -0.158,0.305 -0.378,0.576 z m -7.301,-5.79 0.122,0.204 -0.052,0.126 -0.386,-0.067 -0.022,-0.123 0.146,0.022 z"
       fill="#cccccc"
       stroke="#ffffff"
       stroke-width="0.5"
       id="path9896" />
  </g>
</svg>
