<?xml version="1.0" encoding="UTF-8" standalone="no"?>
<svg
   width="1.4281365"
   height="2.4152644"
   viewBox="0 0 1.4281365 2.4152644"
   fill="none"
   version="1.1"
   id="svg520"
   xmlns="http://www.w3.org/2000/svg"
   xmlns:svg="http://www.w3.org/2000/svg">
  <defs
     id="defs524" />
  <g
     id="New_Layer_1653409134.732563"
     style="display:inline"
     transform="translate(-303.02042,-425.82046)">
    <path
       d="m 304.014,426.658 -0.083,0.045 -0.206,-0.192 0.025,-0.224 0.125,-0.123 0.118,-0.072 0.121,-0.008 0.042,0.185 -0.029,0.261 z m -0.145,0.468 -0.045,0.031 h 0.021 l -0.021,0.021 -0.014,-0.021 -0.022,-0.013 -0.028,-0.006 -0.033,0.001 v -0.021 l 0.042,0.013 0.063,-0.013 v -0.023 l -0.019,-0.021 -0.008,-0.015 0.023,-0.022 0.078,-0.05 0.033,-0.026 0.004,0.011 0.001,0.01 0.004,0.01 0.012,0.01 -0.04,0.039 z m -0.304,0.857 -0.028,10e-4 -0.025,-0.01 0.007,-0.009 0.032,-0.007 0.015,-0.019 -0.005,-0.025 0.001,-0.028 0.025,-0.017 0.02,-0.001 0.009,0.011 0.005,0.026 -0.015,0.02 -0.017,0.016 -0.008,0.025 z"
       fill="#cccccc"
       stroke="#ffffff"
       stroke-width="0.5"
       id="path6739" />
  </g>
</svg>
