<?xml version="1.0" encoding="UTF-8" standalone="no"?>
<svg
   width="5.54422"
   height="6.5094848"
   viewBox="0 0 5.54422 6.5094848"
   fill="none"
   version="1.1"
   id="svg520"
   xmlns="http://www.w3.org/2000/svg"
   xmlns:svg="http://www.w3.org/2000/svg">
  <defs
     id="defs524" />
  <g
     id="New_Layer_1653409134.657069"
     style="display:inline"
     transform="translate(-556.87693,-469.84617)">
    <path
       d="m 561.448,470.363 -0.056,0.073 -0.257,0.522 -0.05,0.079 0.028,0.048 0.11,0.099 -0.065,0.165 -0.025,0.044 -0.049,0.153 0.027,0.141 0.062,0.052 0.167,0.068 0.25,0.049 0.295,0.118 0.199,0.021 0.047,0.085 -0.009,0.151 0.048,0.131 0.001,0.235 -0.059,0.207 -0.304,0.097 -0.157,0.106 -0.042,0.054 0.038,0.062 0.02,0.083 -0.286,0.207 -0.294,0.269 -0.07,0.181 -0.059,0.215 -0.086,0.137 -0.224,0.198 -0.229,0.398 -0.112,0.258 -0.561,0.62 -0.499,0.31 -0.145,0.105 -0.883,-0.018 -0.067,-0.418 -0.134,-0.571 -0.304,-0.515 -0.032,-0.216 0.014,-0.416 10e-4,-0.584 -0.02,-0.314 0.007,-0.229 0.038,-0.398 -0.005,-0.238 -0.199,-0.274 -0.248,-0.292 -0.136,-0.143 -0.007,-0.115 0.001,-0.107 0.04,-0.155 0.097,-0.173 0.109,-0.019 0.268,0.069 0.279,0.147 0.148,0.331 0.114,0.047 0.206,-10e-4 0.527,-0.043 0.131,0.005 0.239,-0.079 0.238,-0.139 0.069,-0.144 0.055,-0.325 0.05,-0.583 0.122,-0.006 0.332,0.207 0.072,0.014 0.069,-0.007 0.116,-0.103 0.141,-0.084 0.105,0.002 0.386,-0.097 0.207,0.176 0.13,0.055 z"
       fill="#cccccc"
       stroke="#ffffff"
       stroke-width="0.5"
       id="path367" />
  </g>
</svg>
