<?xml version="1.0" encoding="UTF-8" standalone="no"?>
<svg
   width="27.243044"
   height="27.895123"
   viewBox="0 0 27.243044 27.895123"
   fill="none"
   version="1.1"
   id="svg520"
   xmlns="http://www.w3.org/2000/svg"
   xmlns:svg="http://www.w3.org/2000/svg">
  <defs
     id="defs524" />
  <g
     id="New_Layer_1653409134.6607206"
     style="display:inline"
     transform="translate(-531.51566,-513.83186)">
    <path
       d="m 546.588,514.102 -0.055,0.145 -0.043,0.211 0.052,0.158 0.112,0.212 0.162,0.185 0.124,0.11 0.147,0.273 0.148,0.342 0.194,0.266 0.569,0.61 0.063,0.219 0.079,0.217 0.358,0.417 0.056,0.139 -0.024,0.283 0.368,0.852 0.242,0.498 0.205,0.092 0.655,0.531 0.572,0.428 0.669,0.289 0.491,0.19 0.243,0.139 0.122,0.133 0.098,0.256 0.051,0.446 0.017,0.288 0.528,-0.011 0.437,0.026 0.153,0.058 0.057,0.082 -0.013,0.19 0.006,0.284 0.02,0.229 -0.045,0.244 -0.031,0.288 -0.021,0.358 0.067,0.139 0.423,0.451 0.177,0.292 0.189,0.443 0.11,0.142 0.089,0.057 0.382,0.048 0.983,0.186 0.606,0.17 0.481,0.175 0.201,0.046 0.097,0.047 0.033,0.043 -0.06,0.386 0.021,0.125 0.054,0.112 0.082,0.088 0.099,0.054 0.365,0.042 0.22,0.235 0.138,0.109 -0.659,0.059 -0.327,0.196 -0.189,0.352 -0.298,0.259 -0.405,0.165 -0.428,0.113 -0.452,0.062 -0.482,0.303 -0.511,0.545 -0.261,0.343 -0.011,0.142 -0.114,0.122 -0.219,0.103 -0.124,0.125 -0.028,0.145 -0.117,0.069 -0.204,-0.006 -0.144,0.107 -0.083,0.218 -0.18,0.133 -0.28,0.047 -0.241,0.123 -0.203,0.2 -0.155,0.102 -0.11,0.003 -0.171,0.163 -0.277,0.386 -0.046,0.179 -0.38,1.458 -0.208,0.173 -0.402,0.301 -0.326,0.361 -0.14,0.213 -0.153,0.095 -0.748,0.178 -0.277,0.095 -0.337,0.138 -0.084,0.124 -0.083,0.454 -0.232,0.65 -0.188,0.481 -0.122,0.419 -0.212,0.521 -0.184,0.175 -0.209,0.16 -0.274,0.079 -0.373,0.05 -0.339,-0.014 -0.262,0.007 -0.364,0.184 -0.34,0.013 -0.54,-0.107 -0.437,-0.103 -0.195,-0.021 -0.386,-0.341 -0.248,0.006 -0.379,-0.027 -0.213,-0.078 -0.197,-0.174 -0.429,-0.342 -0.419,-0.277 -0.371,-0.164 -0.346,-0.076 -0.329,0.068 -0.256,0.073 -0.099,0.036 -0.199,0.143 -0.203,0.271 -0.169,0.424 -0.064,0.26 -0.188,0.553 -0.249,0.664 -0.119,0.191 -0.138,0.142 -0.218,0.126 -0.711,0.529 -0.356,0.597 -0.224,0.174 -0.27,0.081 -0.229,0.051 -0.126,0.1 -0.141,0.302 -0.122,0.107 -0.135,0.041 -0.407,-0.036 -0.13,-0.031 -1.078,0.059 -0.329,-0.095 -0.233,-0.039 -0.367,0.126 -0.154,-0.083 -0.123,-0.251 -0.06,-0.504 0.019,-0.428 0.2,-0.323 0.166,-0.236 0.163,-0.309 0.021,-0.138 -0.033,-0.124 -0.032,-0.253 -0.018,-0.26 -0.231,-0.566 -0.284,-0.749 -0.383,-0.833 -0.119,-0.229 -0.24,-0.361 -0.888,-0.686 -0.136,-0.093 v -0.076 -0.664 l -10e-4,-0.878 -10e-4,-0.877 -0.001,-0.874 -10e-4,-0.873 -10e-4,-0.87 -10e-4,-0.869 v -0.867 l -10e-4,-0.865 -0.001,-0.73 h 0.64 0.791 0.941 0.416 l 0.024,-0.115 v -0.535 l -0.002,-1.224 -0.002,-1.221 -0.002,-1.217 -10e-4,-1.214 -0.002,-1.21 -0.002,-1.208 -0.002,-1.204 -0.001,-1.203 -10e-4,-0.592 0.726,-0.036 0.833,-0.121 1.352,-0.196 1.259,-0.244 0.822,-0.142 0.974,-0.169 0.335,-0.029 0.091,0.023 0.132,0.058 0.452,0.598 0.282,0.456 0.057,0.196 0.054,0.021 0.133,-0.032 0.15,-0.073 0.459,-0.455 0.096,-0.119 0.293,-0.22 0.355,-0.225 0.322,-0.159 0.323,-0.132 0.149,0.033 0.176,0.114 0.156,0.071 0.734,-0.551 0.328,-0.127 0.862,-0.099 z"
       fill="#cccccc"
       stroke="#ffffff"
       stroke-width="0.5"
       id="path9340" />
  </g>
</svg>
