<?xml version="1.0" encoding="UTF-8" standalone="no"?>
<svg
   width="4.6019673"
   height="8.088273"
   viewBox="0 0 4.6019673 8.088273"
   fill="none"
   version="1.1"
   id="svg520"
   xmlns="http://www.w3.org/2000/svg"
   xmlns:svg="http://www.w3.org/2000/svg">
  <defs
     id="defs524" />
  <g
     id="New_Layer_1653409134.6613753"
     style="display:inline"
     transform="translate(-225.00181,-410.96694)">
    <path
       d="m 227.899,411.247 -0.15,0.334 0.15,0.043 0.136,-0.031 0.329,0.012 0.126,0.366 -0.033,0.307 -0.31,0.808 -0.039,0.277 -0.141,0.415 0.191,0.273 -0.179,0.362 -0.061,0.234 -0.014,0.352 0.09,0.668 -0.145,0.962 -0.256,0.42 -0.159,0.159 -0.284,0.417 -0.373,0.124 -0.517,0.671 -0.091,0.176 0.05,0.19 -0.121,0.002 -0.495,-0.031 -0.335,0.035 -0.013,-0.017 0.027,-0.721 0.043,-1.117 0.031,-0.821 0.03,-0.804 0.023,-0.603 0.031,-0.822 0.027,-0.71 -0.003,-0.255 0.081,-0.202 0.233,-0.084 0.302,0.176 0.126,0.073 0.113,-0.042 0.144,-0.107 0.176,-0.311 0.442,-0.643 0.177,-0.457 0.173,-0.091 0.25,-0.016 z m 0.968,1.607 -0.133,0.054 0.11,-0.169 0.016,-0.108 0.154,-0.452 0.11,0.002 0.029,0.04 z m 0.275,1.47 -0.216,0.409 -0.014,-0.117 0.09,-0.303 0.122,-0.106 0.076,-0.112 0.017,-0.132 0.106,0.064 -0.027,0.13 z"
       fill="#cccccc"
       stroke="#ffffff"
       stroke-width="0.5"
       id="path8712" />
  </g>
</svg>
