<?xml version="1.0" encoding="UTF-8" standalone="no"?>
<svg
   width="6.7888856"
   height="4.241004"
   viewBox="0 0 6.7888856 4.241004"
   fill="none"
   version="1.1"
   id="svg520"
   xmlns="http://www.w3.org/2000/svg"
   xmlns:svg="http://www.w3.org/2000/svg">
  <defs
     id="defs524" />
  <g
     id="New_Layer_1653409134.6677012"
     style="display:inline"
     transform="translate(-566.05939,-356.80411)">
    <path
       d="m 572.42,357.28 -1.463,1.034 -0.095,0.307 0.065,0.212 0.206,0.257 0.054,0.067 0.074,0.195 -0.319,0.058 -0.32,0.019 -0.178,-0.026 -0.168,0.012 -0.519,0.557 -0.279,0.189 -0.332,0.112 -0.338,0.067 -0.17,0.009 -0.15,0.07 -0.105,0.129 -0.002,0.125 -0.045,0.103 -0.186,-0.021 -0.077,-0.202 -0.132,-0.087 -0.329,0.045 -0.16,-0.006 -0.526,-0.192 -0.159,-0.08 -0.099,-0.165 -0.271,-0.596 -0.045,-0.443 0.252,0.114 0.236,-0.138 0.227,-0.225 0.271,-0.092 0.169,0.04 0.168,0.04 0.302,-0.072 0.13,-0.334 0.043,-0.384 0.51,0.11 0.518,0.057 0.423,0.019 0.418,-0.062 1.279,-0.411 0.362,-0.246 0.225,-0.084 0.389,-0.203 0.407,-0.113 z"
       fill="#cccccc"
       stroke="#ffffff"
       stroke-width="0.5"
       id="path5910" />
  </g>
</svg>
