<?xml version="1.0" encoding="UTF-8" standalone="no"?>
<svg
   width="24.137335"
   height="21.995644"
   viewBox="0 0 24.137335 21.995644"
   fill="none"
   version="1.1"
   id="svg520"
   xmlns="http://www.w3.org/2000/svg"
   xmlns:svg="http://www.w3.org/2000/svg">
  <defs
     id="defs524" />
  <g
     id="New_Layer_1653409134.671327"
     style="display:inline"
     transform="translate(-427.44566,-383.10093)">
    <path
       d="m 451.33,384.516 0.001,0.523 v 0.621 l 10e-4,0.619 0.001,0.704 v 0.7 0.509 0.354 h -0.571 -0.523 -0.523 -0.522 -0.523 -0.523 -0.523 -0.523 -0.523 -0.523 -0.523 -0.523 -0.523 -0.523 -0.523 -0.522 -0.523 -0.42 v 0.371 0.421 0.422 0.421 0.421 0.42 0.42 0.419 0.419 0.418 0.418 0.418 0.416 0.417 0.416 0.416 0.415 0.37 l -0.02,0.331 -0.168,0.098 -0.401,0.176 -0.412,0.181 -0.523,0.083 -0.172,0.059 -0.334,0.238 -0.439,0.313 -0.38,0.271 -0.251,0.352 -0.091,0.193 -0.037,0.203 0.029,0.194 0.137,0.388 0.037,0.196 0.021,0.341 0.023,0.37 0.025,0.399 0.025,0.399 0.026,0.423 0.027,0.424 0.027,0.425 0.02,0.316 0.025,0.398 -0.425,10e-4 h -0.643 l -0.644,0.001 -0.644,10e-4 -0.643,0.001 -0.643,10e-4 -0.644,0.001 h -0.644 l -0.643,10e-4 -0.644,10e-4 -0.643,0.001 -0.643,10e-4 -0.644,0.001 -0.644,10e-4 h -0.643 l -0.644,10e-4 -0.643,0.001 -0.36,10e-4 -0.116,0.559 -0.103,0.401 -0.06,0.327 0.044,0.276 -0.142,-0.151 0.25,-1.556 0.018,-0.131 0.204,-1.439 0.385,-0.782 0.307,-0.345 0.476,-0.179 0.437,-0.788 0.153,-0.727 0.287,-0.335 0.09,-0.262 -0.113,-0.2 0.271,-0.393 0.328,-0.602 0.152,-0.387 0.383,-0.599 0.047,-0.133 -0.034,-0.15 -0.151,0.127 -0.161,0.222 -0.191,0.175 0.078,-0.215 0.15,-0.316 0.341,-0.332 0.538,-0.365 1.116,-1.243 0.42,-0.215 0.378,-0.525 0.135,-0.467 0.037,-1.074 0.135,-0.568 0.246,-0.443 0.294,-0.809 0.224,-0.361 0.146,-0.74 0.159,-0.281 0.285,-0.135 0.404,-0.369 0.607,-0.229 0.719,-0.481 0.337,-0.288 0.225,-0.43 0.241,-0.858 0.431,-0.905 0.221,-0.684 12.234,-0.014 0.002,10e-4 v -10e-4 h 0.377 v 0.523 z"
       fill="#cccccc"
       stroke="#ffffff"
       stroke-width="0.5"
       id="path2645" />
  </g>
</svg>
