<?xml version="1.0" encoding="UTF-8" standalone="no"?>
<svg
   width="20.660219"
   height="27.48864"
   viewBox="0 0 20.660219 27.48864"
   fill="none"
   version="1.1"
   id="svg520"
   xmlns="http://www.w3.org/2000/svg"
   xmlns:svg="http://www.w3.org/2000/svg">
  <defs
     id="defs524" />
  <g
     id="New_Layer_1653409134.6730106"
     style="display:inline"
     transform="translate(-965.39722,-498.48163)">
    <path
       d="m 972.789,498.816 -0.11,0.029 -0.177,-0.024 -0.036,-0.046 0.056,-0.01 0.116,-0.03 0.142,0.015 0.025,0.03 z m 8.201,10.49 -0.123,0.056 v -0.036 -0.009 l 0.086,-0.078 h 0.069 z m 0.075,1.027 -0.198,0.108 v -0.149 l 0.158,-0.138 0.12,-0.029 -0.074,0.139 z m 2.731,2.245 -0.071,0.1 -0.062,-0.036 0.079,-0.168 0.012,-0.072 -0.122,-0.088 -0.008,-0.062 0.036,-0.038 0.146,0.099 0.089,0.077 0.018,0.042 -0.027,0.075 z m 1.979,1.99 -0.156,0.031 -0.142,-0.125 0.09,-0.132 0.126,0.031 0.072,0.128 z m -2.068,0.07 -0.085,0.044 -0.059,-0.01 -0.069,-0.047 -0.042,-0.083 0.088,-0.07 0.136,0.079 z m 0.635,0.755 -0.033,0.054 -0.15,-0.088 -0.058,-0.06 0.16,-0.046 0.078,0.015 z m -2.913,2.079 0.007,0.087 -0.042,-0.005 -0.05,-0.037 -0.025,0.018 -0.018,0.027 -0.009,0.061 -0.007,0.034 -0.039,-0.012 -0.007,-0.06 0.013,-0.042 0.019,-0.062 0.07,-0.056 z m 3.55,0.666 -0.031,0.027 -0.077,-0.03 -0.063,-0.041 -0.008,-0.042 0.026,-0.054 0.061,-0.028 0.031,0.011 -0.018,0.018 -0.037,0.019 0.006,0.053 0.048,0.032 0.046,0.009 z m -0.496,4.457 0.006,0.008 -0.016,-10e-4 -0.022,-0.01 -0.018,-0.02 -0.004,-0.022 0.009,-0.022 0.009,10e-4 0.015,0.02 0.014,0.022 z m -3.618,-13.233 -0.424,0.387 -0.152,0.2 -0.129,0.221 -0.361,0.237 -0.154,0.318 0.011,0.321 0.362,-0.336 0.403,-0.274 0.124,-0.056 0.127,0.003 -0.011,0.094 -0.058,0.093 -0.045,0.243 0.106,0.226 -0.301,-0.022 -0.298,0.019 -0.353,0.126 -0.347,0.056 -0.13,10e-4 -0.124,-0.042 -0.081,-0.065 -0.063,-0.15 -0.064,-0.022 -0.275,0.007 -0.412,0.294 -0.137,0.252 -0.158,0.011 -0.188,-0.052 -0.227,0.193 -0.271,0.069 -0.116,-0.164 -0.076,-0.2 -0.097,-0.147 -0.298,-0.037 0.046,-0.18 0.079,-0.074 0.072,-0.107 0.044,-0.122 0.143,0.077 0.146,0.05 0.163,-0.091 0.17,-0.008 0.17,-0.266 0.267,-0.167 0.367,-0.132 0.374,-0.094 0.193,-0.019 0.185,-0.054 0.325,-0.25 0.215,-0.128 0.234,-0.077 0.224,-0.045 0.207,0.04 0.167,-0.021 0.426,-0.178 z m 0.002,1.08 -0.036,0.003 -0.007,-0.056 0.043,-0.097 z m 0.391,0.431 -0.092,0.036 -0.299,0.248 -0.193,0.263 -0.096,0.256 0.081,0.106 0.208,-0.109 0.07,-0.111 0.301,-0.217 0.128,-0.248 z m -8.153,1.338 -0.145,0.049 0.077,-0.232 0.081,-0.073 0.052,-0.015 0.083,-0.016 -0.032,0.164 z m 6.141,0.642 -0.094,0.079 -0.044,-0.402 0.097,0.003 0.07,0.042 0.04,0.102 z m -3.205,0.015 v 0.129 l 0.082,0.056 0.082,0.009 0.202,0.248 0.315,0.213 0.192,0.163 0.011,0.139 -0.059,0.147 0.082,0.264 0.039,0.273 0.14,0.434 -0.197,0.083 -0.311,0.01 -0.072,0.078 -0.105,-0.043 -0.258,0.033 -0.246,0.143 -0.234,0.194 h -0.271 l -0.305,0.04 -0.304,-0.027 -0.214,-0.104 -0.377,-0.113 -0.503,-0.096 -0.208,-0.081 -0.174,-0.126 -0.162,-0.319 -0.024,-0.158 0.025,-0.151 0.147,-0.051 0.123,-0.076 0.017,-0.1 0.055,-0.07 0.07,-0.025 0.035,-0.048 -0.05,-0.162 -0.014,-0.147 0.292,-0.27 0.317,-0.23 0.562,-0.212 0.343,0.02 0.526,-0.163 0.169,-0.077 0.167,0.047 z m 1.536,1.044 -0.145,0.052 -0.08,-0.179 0.11,-0.18 0.124,-0.016 0.061,0.183 z m 1.464,1.095 -0.025,0.024 -0.243,-0.234 0.008,-0.093 0.043,-0.083 0.098,-0.078 0.088,0.133 0.069,0.222 z m -2.417,2.565 -10e-4,0.127 -0.361,0.084 -0.121,-0.104 -0.078,-0.019 -0.215,0.186 -0.063,0.076 -0.021,0.057 -0.056,0.029 -0.396,0.089 -0.174,-0.089 0.117,-0.06 0.145,-0.121 0.146,0.018 0.146,-0.113 0.146,-0.172 0.207,-0.037 0.146,-0.066 0.241,0.048 z m -10.829,8.096 -0.021,0.033 -0.081,-0.011 -0.016,-0.067 0.047,-0.038 0.066,0.025 z"
       fill="#cccccc"
       stroke="#ffffff"
       stroke-width="0.5"
       id="path3961" />
  </g>
</svg>
