<?xml version="1.0" encoding="UTF-8" standalone="no"?>
<svg
   width="70.56852"
   height="12.815587"
   viewBox="0 0 70.56852 12.815587"
   fill="none"
   version="1.1"
   id="svg520"
   xmlns="http://www.w3.org/2000/svg"
   xmlns:svg="http://www.w3.org/2000/svg">
  <defs
     id="defs524" />
  <g
     id="New_Layer_1653409134.6736815"
     style="display:inline"
     transform="translate(-862.90858,-436.5139)">
    <path
       d="m 863.396,437.062 -0.213,0.23 -0.014,-0.075 0.064,-0.138 0.09,-0.157 0.084,-0.094 0.109,-0.027 0.078,0.13 -0.088,0.113 z m 38.557,5.831 -0.049,0.015 -0.022,-0.014 0.011,-0.072 0.016,-0.025 0.046,-0.002 0.08,0.02 0.006,0.018 z m -0.656,0.241 -0.023,0.037 -0.171,-0.014 -0.024,-0.021 0.015,-0.016 0.082,-0.017 0.01,-0.051 -0.042,-0.011 0.036,-0.027 0.067,-0.005 0.038,0.032 0.021,0.046 z m 18.711,1.496 -0.163,0.063 -0.205,-0.029 -0.063,-0.229 -0.094,-0.061 0.021,-0.113 0.144,-0.092 0.305,0.075 0.113,0.163 -0.072,0.108 z m 13.101,4.172 0.029,0.136 -0.179,-0.066 -0.024,-0.048 0.104,-0.048 z"
       fill="#cccccc"
       stroke="#ffffff"
       stroke-width="0.5"
       id="path4218" />
  </g>
</svg>
