<?xml version="1.0" encoding="UTF-8" standalone="no"?>
<svg
   width="3.4784701"
   height="6.9107308"
   viewBox="0 0 3.4784701 6.9107308"
   fill="none"
   version="1.1"
   id="svg520"
   xmlns="http://www.w3.org/2000/svg"
   xmlns:svg="http://www.w3.org/2000/svg">
  <defs
     id="defs524" />
  <g
     id="New_Layer_1653409134.6739998"
     style="display:inline"
     transform="translate(-454.52432,-238.20515)">
    <path
       d="m 457.721,239.723 -0.134,0.434 -0.199,-0.068 -0.055,-0.047 -0.043,-0.113 0.021,-0.323 -0.007,-0.468 0.229,0.385 z m -0.631,0.185 -0.07,0.806 -0.114,-0.004 -0.204,-0.223 -0.153,-0.046 -0.048,0.119 0.008,0.143 0.079,0.09 0.244,0.538 0.022,0.157 -0.03,0.076 -0.237,-0.155 -0.572,-0.696 -0.445,-1.151 0.6,-0.185 0.435,0.303 z m -1.56,0.532 0.252,0.232 0.089,0.164 -0.145,0.158 -0.175,0.041 -0.212,-0.037 -0.349,-0.171 -0.122,-0.392 0.241,0.009 0.285,-0.075 z m 1.582,1.988 -0.055,0.223 -0.077,-0.002 -0.264,-0.276 -0.21,-0.151 -0.07,-0.128 -0.059,-0.219 0.121,-0.027 0.144,0.05 0.361,0.2 0.102,0.208 z m -0.215,2.131 0.056,0.178 -0.065,-0.02 -0.189,-0.203 -0.33,-0.484 -0.115,-0.401 -0.016,-0.186 0.082,0.021 0.068,0.165 0.313,0.108 0.083,0.082 -10e-4,0.201 0.105,0.238 z"
       fill="#cccccc"
       stroke="#ffffff"
       stroke-width="0.5"
       id="path9589" />
  </g>
</svg>
