<?xml version="1.0" encoding="UTF-8" standalone="no"?>
<svg
   width="2.7089331"
   height="2.3576124"
   viewBox="0 0 2.7089331 2.3576124"
   fill="none"
   version="1.1"
   id="svg520"
   xmlns="http://www.w3.org/2000/svg"
   xmlns:svg="http://www.w3.org/2000/svg">
  <defs
     id="defs524" />
  <g
     id="New_Layer_1653409134.6786737"
     style="display:inline"
     transform="translate(-302.01544,-416.6945)">
    <path
       d="m 303.585,417.799 -0.33,0.032 -0.217,-0.025 -0.05,-0.208 0.111,-0.176 -0.08,-0.214 0.051,-0.127 0.111,-0.084 0.182,0.112 0.029,0.16 0.114,0.146 0.513,0.312 z m -0.736,0.649 -0.227,0.13 -0.111,-0.04 -0.138,-0.25 -0.097,-0.694 0.075,-0.115 0.054,-0.043 0.299,0.085 0.125,0.098 0.125,0.062 -0.063,0.127 0.031,0.521 z m 1.008,0.34 -0.156,0.011 -0.069,-0.025 -0.021,-0.174 0.121,-0.12 0.071,-0.029 0.105,0.135 0.025,0.112 z"
       fill="#cccccc"
       stroke="#ffffff"
       stroke-width="0.5"
       id="path2806" />
  </g>
</svg>
