<?xml version="1.0" encoding="UTF-8" standalone="no"?>
<svg
   width="1.9921726"
   height="1.6957943"
   viewBox="0 0 1.9921726 1.6957943"
   fill="none"
   version="1.1"
   id="svg520"
   xmlns="http://www.w3.org/2000/svg"
   xmlns:svg="http://www.w3.org/2000/svg">
  <defs
     id="defs524" />
  <g
     id="New_Layer_1653409134.681316"
     style="display:inline"
     transform="translate(-794.87591,-398.802)">
    <path
       d="m 796.386,399.124 0.01,0.013 0.061,0.113 -0.019,0.126 0.114,0.061 0.029,0.125 -0.127,0.067 -0.006,0.146 -0.057,0.09 -0.362,-0.16 -0.297,-0.083 -0.27,0.033 -0.097,-0.094 -0.018,-0.097 0.31,-0.168 0.025,-0.084 0.008,-0.007 0.089,-0.086 0.135,-0.025 0.069,-0.042 h 0.184 l 0.112,0.033 z m -0.753,0.998 h -0.338 l -0.071,-0.03 -0.036,-0.064 0.119,-0.116 0.456,-0.16 -0.114,0.168 z m 0.657,0 -0.069,0.046 -0.192,-0.22 -0.011,-0.072 0.147,-0.013 0.167,0.1 -0.009,0.091 z"
       fill="#cccccc"
       stroke="#ffffff"
       stroke-width="0.5"
       id="path4723" />
  </g>
</svg>
