<?xml version="1.0" encoding="UTF-8" standalone="no"?>
<svg
   version="1.0"
   width="53.547623pt"
   height="63.493137pt"
   viewBox="0 0 53.547623 63.493136"
   preserveAspectRatio="xMidYMid meet"
   id="svg2321"
   xmlns="http://www.w3.org/2000/svg"
   xmlns:svg="http://www.w3.org/2000/svg"
   xmlns:rdf="http://www.w3.org/1999/02/22-rdf-syntax-ns#"
   xmlns:cc="http://creativecommons.org/ns#"
   xmlns:dc="http://purl.org/dc/elements/1.1/">
  <metadata
     id="metadata2428">
    <rdf:RDF>
      <cc:Work
         rdf:about="">
        <dc:format>image/svg+xml</dc:format>
        <dc:type
           rdf:resource="http://purl.org/dc/dcmitype/StillImage" />
        <dc:title>Location of Europe</dc:title>
      </cc:Work>
    </rdf:RDF>
  </metadata>
  <defs
     id="defs2426" />
  <title
     id="title2323">Location of Europe</title>
  <desc
     id="desc2325">World map with Europe marked. Drawn by maix (Marian Sigler)</desc>
  <g
     id="layer6"
     style="display:inline"
     transform="translate(-318.80645,-114.9404)">
    <g
       style="fill:#00aad4"
       id="australia"
       transform="matrix(0.016963,0,0,-0.016963,-43.875,233.48)">
      <path
         id="path2372"
         d="m 23110,6970 c -19,-11 -40,-24 -47,-29 -8,-7 -14,-7 -18,-1 -7,11 -45,14 -45,4 0,-17 44,-64 60,-64 28,0 50,-11 50,-25 0,-29 34,-43 93,-39 42,3 57,2 52,-6 -4,-7 -17,-9 -30,-6 -14,4 -28,0 -35,-9 -7,-9 -21,-13 -30,-10 -20,6 -50,-3 -50,-16 0,-5 11,-14 25,-19 14,-5 25,-16 25,-25 0,-8 5,-15 11,-15 5,0 7,-5 4,-10 -9,-15 5,-51 16,-44 6,3 17,0 25,-7 8,-6 18,-9 21,-5 4,4 2,10 -4,14 -7,5 -9,13 -3,21 7,12 14,11 45,-3 20,-10 45,-25 55,-33 10,-9 32,-18 48,-19 39,-5 187,-76 186,-89 -1,-5 5,-19 12,-30 8,-11 14,-27 14,-37 0,-10 3,-18 8,-18 4,0 7,-16 8,-35 0,-27 -3,-35 -17,-35 -19,0 -69,-64 -69,-88 0,-14 90,-14 101,1 3,4 21,10 40,12 32,4 38,1 72,-44 37,-48 38,-49 92,-49 31,1 58,-2 62,-5 3,-4 14,-2 24,3 15,8 17,7 14,-10 -2,-11 -7,-25 -10,-30 -3,-6 -2,-10 3,-10 12,0 22,24 22,51 0,10 5,19 10,19 6,0 10,7 10,16 0,8 4,13 9,10 5,-3 9,5 9,18 0,40 73,92 96,68 4,-4 24,-12 44,-17 22,-6 41,-19 47,-33 5,-12 13,-22 17,-22 5,0 8,-8 8,-19 0,-10 7,-24 15,-31 8,-7 12,-16 9,-21 -3,-5 2,-9 10,-9 9,0 18,-11 22,-24 4,-18 17,-27 52,-37 26,-7 61,-12 77,-11 17,0 40,-6 52,-14 26,-16 99,-19 108,-4 4,6 3,10 -2,9 -4,-1 -15,-1 -23,0 -12,1 -12,3 -2,9 9,6 0,13 -28,22 -36,12 -55,30 -30,30 23,0 8,19 -17,22 -23,2 -27,7 -25,27 3,22 1,23 -26,18 -27,-6 -30,-3 -43,36 -8,23 -31,58 -51,78 -21,20 -38,46 -38,57 0,18 6,22 35,22 27,0 35,4 35,18 0,21 -33,55 -56,58 -9,1 -23,9 -32,17 -10,8 -29,17 -43,21 -22,5 -25,10 -21,31 2,14 8,25 13,25 5,0 9,7 9,16 0,14 -3,14 -15,4 -13,-11 -19,-9 -35,8 -11,12 -20,26 -20,32 0,6 -4,9 -9,5 -5,-3 -16,2 -24,10 -9,8 -24,15 -35,15 -11,0 -25,7 -32,15 -6,8 -37,21 -68,30 -32,9 -75,27 -97,39 -22,13 -46,21 -52,19 -7,-3 -13,0 -13,5 0,5 -19,12 -41,16 -23,4 -72,23 -109,43 -63,33 -70,35 -98,22 -17,-7 -33,-21 -35,-31 -3,-11 -15,-18 -31,-18 -14,0 -26,-4 -26,-8 0,-5 -8,-18 -17,-30 -10,-11 -25,-30 -33,-41 -8,-12 -24,-21 -36,-21 -17,0 -24,9 -34,48 -7,26 -15,41 -17,34 -7,-18 -23,-4 -23,21 0,18 2,20 11,7 9,-12 10,-11 4,5 -4,11 -8,37 -10,58 -5,46 -13,60 -30,53 -7,-2 -29,4 -49,15 -44,23 -61,23 -106,-1 z"
         style="fill:#00aad4" />
      <path
         id="path2374"
         d="m 23852,6078 c -5,-7 -13,-24 -17,-38 -4,-14 -16,-40 -28,-58 -11,-19 -21,-52 -23,-74 -2,-22 -8,-46 -14,-53 -5,-7 -12,-41 -15,-76 -6,-76 -40,-186 -66,-215 -11,-11 -19,-25 -19,-31 0,-20 -31,-43 -56,-43 -16,0 -39,15 -64,40 -22,22 -48,40 -58,40 -10,0 -25,11 -32,25 -7,14 -19,25 -26,25 -8,0 -16,11 -20,25 -7,27 -24,34 -24,10 0,-10 -18,2 -49,31 l -49,47 20,21 c 11,12 24,31 29,44 5,13 14,20 20,17 6,-4 8,-13 5,-20 -5,-13 31,-28 46,-19 8,5 4,52 -6,62 -3,3 -12,-1 -21,-8 -13,-11 -15,-9 -15,14 0,14 5,25 11,24 6,-2 22,17 36,42 20,37 21,46 10,55 -8,5 -12,16 -10,23 3,6 0,12 -6,12 -6,0 -11,-4 -11,-9 0,-5 -9,-11 -21,-14 -15,-4 -19,-2 -15,9 7,19 0,18 -34,-8 -23,-17 -33,-19 -42,-10 -7,7 -22,12 -34,12 -13,0 -29,6 -36,13 -7,8 -19,12 -26,9 -6,-2 -12,5 -12,15 0,15 -2,16 -10,3 -9,-13 -12,-13 -21,3 -6,9 -14,15 -20,12 -5,-4 -9,3 -9,14 0,18 -3,19 -25,11 -14,-5 -25,-6 -25,-3 0,4 -5,2 -12,-5 -14,-14 7,-43 26,-36 19,7 29,-25 14,-43 -9,-12 -26,-14 -65,-10 -30,3 -53,1 -53,-4 0,-5 -5,-9 -12,-9 -18,0 -67,-60 -62,-75 3,-8 -4,-18 -15,-25 -12,-6 -21,-16 -21,-22 0,-7 -10,-22 -22,-35 -18,-19 -20,-26 -9,-32 23,-15 2,-30 -35,-25 -20,2 -43,-1 -50,-7 -12,-10 -13,-9 -8,5 4,10 0,18 -10,22 -9,3 -16,12 -16,19 0,8 -14,24 -31,36 -29,20 -33,21 -44,6 -7,-9 -14,-15 -16,-12 -11,10 -69,15 -69,5 0,-5 5,-10 10,-10 6,0 10,-10 10,-22 -1,-22 -1,-23 -15,-4 -14,18 -15,18 -15,2 0,-13 -5,-16 -20,-11 -17,5 -20,2 -20,-21 0,-15 -3,-25 -6,-22 -11,11 -58,-44 -60,-70 -1,-15 -3,-31 -3,-36 -1,-4 -17,-5 -37,-1 -23,4 -34,3 -30,-4 4,-5 2,-12 -4,-16 -7,-4 -7,-12 0,-26 7,-11 7,-19 1,-19 -5,0 -11,-8 -14,-17 -2,-10 -8,1 -12,25 -4,23 -11,42 -14,42 -4,0 -24,-17 -44,-38 -29,-29 -37,-46 -37,-73 0,-27 -9,-45 -32,-71 -18,-20 -41,-47 -51,-62 -25,-36 -73,-59 -129,-61 -28,-1 -55,-8 -66,-18 -10,-9 -30,-17 -44,-17 -14,0 -31,-7 -38,-15 -9,-11 -25,-14 -51,-11 -22,2 -41,0 -45,-5 -3,-5 -12,-9 -20,-9 -8,0 -29,-13 -47,-29 -17,-17 -48,-37 -68,-46 -20,-10 -42,-29 -50,-44 l -12,-26 -6,30 c -5,24 -8,27 -16,15 -25,-38 -35,-65 -35,-92 0,-16 -11,-46 -25,-66 -30,-44 -30,-53 -7,-129 23,-75 18,-113 -8,-57 l -18,39 -10,-25 -10,-25 -11,25 c -10,22 -11,19 -6,-19 3,-24 13,-57 21,-73 9,-17 17,-53 19,-82 2,-28 7,-64 10,-81 4,-16 7,-43 6,-60 0,-16 -2,-84 -3,-149 -2,-85 -7,-121 -15,-123 -7,-3 -13,-15 -13,-27 0,-30 -27,-66 -51,-66 -12,0 -23,-10 -29,-26 -14,-36 -13,-44 9,-44 11,0 22,-8 25,-18 8,-24 40,-39 98,-46 45,-5 98,8 98,24 0,8 32,21 61,25 9,1 25,11 36,22 25,25 97,35 215,29 l 86,-5 44,45 c 23,24 51,44 60,44 9,0 19,4 22,9 3,5 18,12 33,16 16,3 36,13 45,22 12,11 27,13 50,9 33,-6 171,25 193,44 6,5 52,12 103,16 87,7 94,6 117,-16 13,-12 30,-20 37,-18 7,3 30,-6 50,-19 21,-12 43,-23 50,-23 9,0 9,-3 0,-12 -17,-17 -15,-48 2,-48 23,0 34,-91 13,-104 -14,-9 -12,-14 16,-39 32,-28 32,-28 35,-6 4,25 68,89 89,89 8,0 35,20 60,45 25,25 48,43 52,39 3,-4 0,-9 -6,-11 -7,-3 -13,-13 -13,-23 0,-10 -12,-25 -26,-35 -14,-9 -32,-32 -40,-51 -8,-19 -25,-39 -37,-43 -13,-5 -29,-17 -37,-27 -14,-16 -13,-17 10,-11 14,4 33,7 43,7 10,0 27,16 38,35 12,19 25,35 30,35 20,0 7,-50 -21,-78 -33,-33 -30,-44 10,-36 23,5 29,1 40,-27 12,-29 12,-36 -6,-68 -17,-31 -19,-41 -9,-70 7,-19 22,-38 34,-42 11,-5 21,-12 21,-17 0,-5 18,-9 41,-9 23,0 44,-5 48,-10 3,-6 16,-15 28,-22 19,-10 30,-8 70,13 26,14 50,22 53,18 3,-4 22,-16 43,-26 20,-11 37,-26 37,-34 0,-12 4,-12 21,4 58,52 164,104 216,104 64,0 122,32 123,67 0,7 11,24 25,39 14,15 25,32 25,39 0,6 20,30 45,53 25,23 67,68 92,100 61,76 110,123 156,147 20,11 37,25 37,31 0,6 12,24 28,41 45,49 62,73 62,85 0,7 10,28 23,47 57,87 89,146 93,175 3,17 12,48 20,70 16,41 11,65 -5,25 -5,-13 -10,-19 -10,-14 -1,11 17,82 26,105 3,8 5,19 4,23 -1,5 8,23 19,42 11,18 20,41 19,51 0,14 -2,15 -6,4 -15,-41 -53,-48 -53,-9 0,10 -4,19 -9,19 -5,0 -11,14 -14,30 -4,17 -13,30 -21,30 -8,0 -16,10 -18,23 -2,12 -9,21 -16,19 -11,-2 -12,10 -6,54 6,54 6,57 -14,52 -13,-4 -23,0 -26,9 -5,13 -9,13 -22,2 -13,-11 -15,-7 -13,28 2,25 -4,51 -14,67 -21,31 -21,36 -2,36 10,0 14,8 11,23 -2,12 -9,21 -16,19 -17,-4 -79,39 -86,60 -3,10 -11,15 -20,11 -7,-3 -14,0 -14,7 0,6 -4,9 -9,6 -15,-10 -34,23 -29,49 3,14 1,28 -4,31 -4,3 -5,10 -2,16 12,19 4,101 -11,118 -15,16 -17,123 -2,146 4,7 -4,19 -20,29 -24,16 -25,19 -10,30 12,9 14,14 5,23 -7,7 -19,12 -27,11 -11,0 -10,-3 4,-9 20,-9 20,-9 0,-10 -11,-2 -23,-2 -27,-1 -5,0 -8,-3 -8,-9 0,-5 -7,-10 -16,-10 -12,0 -14,10 -12,50 2,37 7,49 16,45 10,-4 13,5 12,33 -1,20 -1,39 0,42 7,21 7,40 -1,40 -10,0 -13,-20 -10,-69 2,-20 -1,-31 -7,-27 -6,3 -9,14 -7,24 1,9 -2,22 -7,28 -10,14 -7,35 7,47 6,5 3,7 -7,3 -17,-5 -43,25 -32,37 3,3 3,19 -1,36 -7,32 -25,40 -43,19 z M 21490,4735 c 0,-8 -2,-15 -4,-15 -2,0 -6,7 -10,15 -3,8 -1,15 4,15 6,0 10,-7 10,-15 z m 1900,-1020 c -7,-9 -15,-13 -17,-11 -7,7 7,26 19,26 6,0 6,-6 -2,-15 z"
         style="fill:#00aad4" />
      <path
         id="path2376"
         d="m 23246,3492 c -14,-21 -28,-57 -30,-80 -3,-22 -10,-50 -16,-61 -6,-12 -10,-39 -8,-60 2,-35 5,-40 31,-45 31,-6 97,19 97,36 0,7 5,7 13,0 10,-8 20,-4 40,18 15,15 27,35 27,44 0,9 8,16 19,16 12,0 23,9 27,23 4,12 17,38 30,58 31,49 18,60 -49,41 -88,-24 -91,-24 -112,-5 -11,11 -24,21 -30,24 -5,2 -9,10 -7,17 5,21 -4,13 -32,-26 z"
         style="fill:#00aad4" />
    </g>
  </g>
</svg>
